<svg xmlns="http://www.w3.org/2000/svg" xmlns:xlink="http://www.w3.org/1999/xlink" width="1080" zoomAndPan="magnify" viewBox="0 0 810 809.999993" height="1080" preserveAspectRatio="xMidYMid meet" version="1.0"><defs><g/><clipPath id="e2150af723"><path d="M 81 148.027344 L 260.058594 148.027344 L 260.058594 338.277344 L 81 338.277344 Z M 81 148.027344 " clip-rule="nonzero"/></clipPath><clipPath id="d4029b5e8b"><path d="M 102 148.027344 L 239.058594 148.027344 C 250.65625 148.027344 260.058594 157.429688 260.058594 169.027344 L 260.058594 317.277344 C 260.058594 328.875 250.65625 338.277344 239.058594 338.277344 L 102 338.277344 C 90.402344 338.277344 81 328.875 81 317.277344 L 81 169.027344 C 81 157.429688 90.402344 148.027344 102 148.027344 Z M 102 148.027344 " clip-rule="nonzero"/></clipPath><clipPath id="96468f33e4"><path d="M 81 148.03125 L 260.25 148.03125 L 260.25 338.527344 L 81 338.527344 Z M 81 148.03125 " clip-rule="nonzero"/></clipPath><clipPath id="992fe66110"><path d="M 102 148.03125 L 239.050781 148.03125 C 250.648438 148.03125 260.050781 157.433594 260.050781 169.03125 L 260.050781 317.269531 C 260.050781 328.867188 250.648438 338.269531 239.050781 338.269531 L 102 338.269531 C 90.402344 338.269531 81 328.867188 81 317.269531 L 81 169.03125 C 81 157.433594 90.402344 148.03125 102 148.03125 Z M 102 148.03125 " clip-rule="nonzero"/></clipPath><clipPath id="c13e68069d"><path d="M 315.472656 148.027344 L 494.527344 148.027344 L 494.527344 338.277344 L 315.472656 338.277344 Z M 315.472656 148.027344 " clip-rule="nonzero"/></clipPath><clipPath id="d76108661d"><path d="M 336.472656 148.027344 L 473.527344 148.027344 C 485.125 148.027344 494.527344 157.429688 494.527344 169.027344 L 494.527344 317.277344 C 494.527344 328.875 485.125 338.277344 473.527344 338.277344 L 336.472656 338.277344 C 324.875 338.277344 315.472656 328.875 315.472656 317.277344 L 315.472656 169.027344 C 315.472656 157.429688 324.875 148.027344 336.472656 148.027344 Z M 336.472656 148.027344 " clip-rule="nonzero"/></clipPath><clipPath id="772566f51c"><path d="M 315.472656 148.03125 L 494.722656 148.03125 L 494.722656 338.527344 L 315.472656 338.527344 Z M 315.472656 148.03125 " clip-rule="nonzero"/></clipPath><clipPath id="1078704511"><path d="M 336.46875 148.03125 L 473.523438 148.03125 C 485.121094 148.03125 494.523438 157.433594 494.523438 169.03125 L 494.523438 317.269531 C 494.523438 328.867188 485.121094 338.269531 473.523438 338.269531 L 336.46875 338.269531 C 324.875 338.269531 315.472656 328.867188 315.472656 317.269531 L 315.472656 169.03125 C 315.472656 157.433594 324.875 148.03125 336.46875 148.03125 Z M 336.46875 148.03125 " clip-rule="nonzero"/></clipPath><clipPath id="6fd2ce047f"><path d="M 549.941406 148.027344 L 729 148.027344 L 729 338.277344 L 549.941406 338.277344 Z M 549.941406 148.027344 " clip-rule="nonzero"/></clipPath><clipPath id="8cb4f2b55c"><path d="M 570.941406 148.027344 L 708 148.027344 C 719.597656 148.027344 729 157.429688 729 169.027344 L 729 317.277344 C 729 328.875 719.597656 338.277344 708 338.277344 L 570.941406 338.277344 C 559.34375 338.277344 549.941406 328.875 549.941406 317.277344 L 549.941406 169.027344 C 549.941406 157.429688 559.34375 148.027344 570.941406 148.027344 Z M 570.941406 148.027344 " clip-rule="nonzero"/></clipPath><clipPath id="6ad9fe9b3c"><path d="M 549.941406 148.03125 L 729 148.03125 L 729 338.527344 L 549.941406 338.527344 Z M 549.941406 148.03125 " clip-rule="nonzero"/></clipPath><clipPath id="500fccf8dd"><path d="M 570.941406 148.03125 L 707.996094 148.03125 C 719.59375 148.03125 728.992188 157.433594 728.992188 169.03125 L 728.992188 317.269531 C 728.992188 328.867188 719.59375 338.269531 707.996094 338.269531 L 570.941406 338.269531 C 559.34375 338.269531 549.941406 328.867188 549.941406 317.269531 L 549.941406 169.03125 C 549.941406 157.433594 559.34375 148.03125 570.941406 148.03125 Z M 570.941406 148.03125 " clip-rule="nonzero"/></clipPath><clipPath id="e1d40478ad"><path d="M 119.550781 186 L 221.550781 186 L 221.550781 300.707031 L 119.550781 300.707031 Z M 119.550781 186 " clip-rule="nonzero"/></clipPath><clipPath id="4d9ff0624b"><path d="M 349.140625 180.738281 L 460.890625 180.738281 L 460.890625 305.238281 L 349.140625 305.238281 Z M 349.140625 180.738281 " clip-rule="nonzero"/></clipPath><clipPath id="ba127625d8"><path d="M 579.753906 178.507812 L 699.003906 178.507812 L 699.003906 307.507812 L 579.753906 307.507812 Z M 579.753906 178.507812 " clip-rule="nonzero"/></clipPath><clipPath id="7638630a6d"><path d="M 81.171875 491.289062 L 260.230469 491.289062 L 260.230469 681.535156 L 81.171875 681.535156 Z M 81.171875 491.289062 " clip-rule="nonzero"/></clipPath><clipPath id="bcfde8d1f8"><path d="M 102.171875 491.289062 L 239.230469 491.289062 C 250.828125 491.289062 260.230469 500.691406 260.230469 512.289062 L 260.230469 660.535156 C 260.230469 672.132812 250.828125 681.535156 239.230469 681.535156 L 102.171875 681.535156 C 90.574219 681.535156 81.171875 672.132812 81.171875 660.535156 L 81.171875 512.289062 C 81.171875 500.691406 90.574219 491.289062 102.171875 491.289062 Z M 102.171875 491.289062 " clip-rule="nonzero"/></clipPath><clipPath id="b370368491"><path d="M 81.171875 491.289062 L 260.421875 491.289062 L 260.421875 681.789062 L 81.171875 681.789062 Z M 81.171875 491.289062 " clip-rule="nonzero"/></clipPath><clipPath id="09264c180e"><path d="M 102.171875 491.289062 L 239.222656 491.289062 C 250.820312 491.289062 260.222656 500.691406 260.222656 512.289062 L 260.222656 660.53125 C 260.222656 672.128906 250.820312 681.53125 239.222656 681.53125 L 102.171875 681.53125 C 90.574219 681.53125 81.171875 672.128906 81.171875 660.53125 L 81.171875 512.289062 C 81.171875 500.691406 90.574219 491.289062 102.171875 491.289062 Z M 102.171875 491.289062 " clip-rule="nonzero"/></clipPath><clipPath id="cbf146a1cf"><path d="M 315.644531 491.289062 L 494.699219 491.289062 L 494.699219 681.535156 L 315.644531 681.535156 Z M 315.644531 491.289062 " clip-rule="nonzero"/></clipPath><clipPath id="863daa40c7"><path d="M 336.644531 491.289062 L 473.699219 491.289062 C 485.296875 491.289062 494.699219 500.691406 494.699219 512.289062 L 494.699219 660.535156 C 494.699219 672.132812 485.296875 681.535156 473.699219 681.535156 L 336.644531 681.535156 C 325.046875 681.535156 315.644531 672.132812 315.644531 660.535156 L 315.644531 512.289062 C 315.644531 500.691406 325.046875 491.289062 336.644531 491.289062 Z M 336.644531 491.289062 " clip-rule="nonzero"/></clipPath><clipPath id="864e8acde1"><path d="M 315.644531 491.289062 L 494.894531 491.289062 L 494.894531 681.789062 L 315.644531 681.789062 Z M 315.644531 491.289062 " clip-rule="nonzero"/></clipPath><clipPath id="bcae4f625c"><path d="M 336.640625 491.289062 L 473.695312 491.289062 C 485.292969 491.289062 494.695312 500.691406 494.695312 512.289062 L 494.695312 660.53125 C 494.695312 672.128906 485.292969 681.53125 473.695312 681.53125 L 336.640625 681.53125 C 325.042969 681.53125 315.644531 672.128906 315.644531 660.53125 L 315.644531 512.289062 C 315.644531 500.691406 325.042969 491.289062 336.640625 491.289062 Z M 336.640625 491.289062 " clip-rule="nonzero"/></clipPath><clipPath id="50397e5198"><path d="M 133.179688 516.976562 L 203 516.976562 L 203 666.976562 L 133.179688 666.976562 Z M 133.179688 516.976562 " clip-rule="nonzero"/></clipPath><clipPath id="34ee031bd7"><path d="M 331.300781 539 L 479.050781 539 L 479.050781 633.988281 L 331.300781 633.988281 Z M 331.300781 539 " clip-rule="nonzero"/></clipPath></defs><g clip-path="url(#e2150af723)"><g clip-path="url(#d4029b5e8b)"><path fill="#050606" d="M 81 148.027344 L 260.058594 148.027344 L 260.058594 338.277344 L 81 338.277344 Z M 81 148.027344 " fill-opacity="1" fill-rule="nonzero"/></g></g><g clip-path="url(#96468f33e4)"><g clip-path="url(#992fe66110)"><path stroke-linecap="butt" transform="matrix(0.75, 0, 0, 0.75, 80.999999, 148.030105)" fill="none" stroke-linejoin="miter" d="M 28.000002 0.00152726 L 210.734386 0.00152726 C 226.197929 0.00152726 238.734388 12.537986 238.734388 28.001529 L 238.734388 225.65258 C 238.734388 241.116123 226.197929 253.652582 210.734386 253.652582 L 28.000002 253.652582 C 12.53646 253.652582 0.000000766667 241.116123 0.000000766667 225.65258 L 0.000000766667 28.001529 C 0.000000766667 12.537986 12.53646 0.00152726 28.000002 0.00152726 Z M 28.000002 0.00152726 " stroke="#545454" stroke-width="6" stroke-opacity="1" stroke-miterlimit="4"/></g></g><g clip-path="url(#c13e68069d)"><g clip-path="url(#d76108661d)"><path fill="#050606" d="M 315.472656 148.027344 L 494.527344 148.027344 L 494.527344 338.277344 L 315.472656 338.277344 Z M 315.472656 148.027344 " fill-opacity="1" fill-rule="nonzero"/></g></g><g clip-path="url(#772566f51c)"><g clip-path="url(#1078704511)"><path stroke-linecap="butt" transform="matrix(0.75, 0, 0, 0.75, 315.471374, 148.030105)" fill="none" stroke-linejoin="miter" d="M 27.996503 0.00152726 L 210.736095 0.00152726 C 226.199638 0.00152726 238.736097 12.537986 238.736097 28.001529 L 238.736097 225.65258 C 238.736097 241.116123 226.199638 253.652582 210.736095 253.652582 L 27.996503 253.652582 C 12.538169 253.652582 0.00170963 241.116123 0.00170963 225.65258 L 0.00170963 28.001529 C 0.00170963 12.537986 12.538169 0.00152726 27.996503 0.00152726 Z M 27.996503 0.00152726 " stroke="#545454" stroke-width="6" stroke-opacity="1" stroke-miterlimit="4"/></g></g><g clip-path="url(#6fd2ce047f)"><g clip-path="url(#8cb4f2b55c)"><path fill="#050606" d="M 549.941406 148.027344 L 729 148.027344 L 729 338.277344 L 549.941406 338.277344 Z M 549.941406 148.027344 " fill-opacity="1" fill-rule="nonzero"/></g></g><g clip-path="url(#6ad9fe9b3c)"><g clip-path="url(#500fccf8dd)"><path stroke-linecap="butt" transform="matrix(0.75, 0, 0, 0.75, 549.942744, 148.030105)" fill="none" stroke-linejoin="miter" d="M 27.998218 0.00152726 L 210.73781 0.00152726 C 226.201353 0.00152726 238.732604 12.537986 238.732604 28.001529 L 238.732604 225.65258 C 238.732604 241.116123 226.201353 253.652582 210.73781 253.652582 L 27.998218 253.652582 C 12.534676 253.652582 -0.00178344 241.116123 -0.00178344 225.65258 L -0.00178344 28.001529 C -0.00178344 12.537986 12.534676 0.00152726 27.998218 0.00152726 Z M 27.998218 0.00152726 " stroke="#545454" stroke-width="6" stroke-opacity="1" stroke-miterlimit="4"/></g></g><g clip-path="url(#e1d40478ad)"><path fill="#ffffff" d="M 220.933594 186.910156 C 220.460938 186.394531 219.800781 186.101562 219.101562 186.101562 L 122.191406 186.101562 C 121.496094 186.101562 120.832031 186.394531 120.359375 186.910156 C 119.890625 187.421875 119.660156 188.113281 119.722656 188.804688 L 128.453125 286.59375 C 128.542969 287.617188 129.253906 288.476562 130.242188 288.761719 L 169.957031 300.101562 C 170.175781 300.164062 170.40625 300.199219 170.636719 300.199219 C 170.867188 300.199219 171.09375 300.164062 171.316406 300.101562 L 211.058594 288.761719 C 212.046875 288.476562 212.757812 287.617188 212.851562 286.59375 L 221.574219 188.804688 C 221.636719 188.109375 221.402344 187.421875 220.933594 186.910156 Z M 200.03125 220.625 L 153.375 220.625 L 154.484375 233.25 L 198.910156 233.25 L 195.578125 270.554688 L 170.632812 278.097656 L 170.386719 278.023438 L 145.726562 270.554688 L 144.382812 255.347656 L 156.460938 255.347656 L 156.992188 261.25 L 170.769531 264.140625 L 184.304688 261.246094 L 185.746094 245.285156 L 143.476562 245.285156 L 140.199219 208.558594 L 201.113281 208.558594 Z M 200.03125 220.625 " fill-opacity="1" fill-rule="nonzero"/></g><g clip-path="url(#4d9ff0624b)"><path fill="#ffffff" d="M 460.839844 180.738281 L 450.984375 292.425781 L 404.996094 305.566406 L 359.007812 292.425781 L 349.152344 180.738281 Z M 378.0625 253.007812 L 391.203125 253.007812 L 391.523438 261.21875 L 404.996094 265.8125 L 418.46875 261.21875 L 419.445312 246.4375 L 390.546875 246.4375 L 389.878906 233.296875 L 420.113281 233.296875 L 421.085938 220.15625 L 375.765625 220.15625 L 374.777344 207.019531 L 434.894531 207.019531 L 433.25 233.296875 L 430.941406 271.074219 L 404.996094 279.621094 L 379.050781 271.074219 Z M 378.0625 253.007812 " fill-opacity="1" fill-rule="evenodd"/></g><g clip-path="url(#ba127625d8)"><path fill="#ffffff" d="M 639.4375 178.507812 C 637.625 178.507812 635.808594 178.953125 634.242188 179.847656 L 584.964844 208.292969 C 581.785156 210.132812 579.800781 213.617188 579.800781 217.296875 L 579.800781 268.902344 C 579.800781 272.632812 581.785156 276.066406 584.964844 277.90625 L 597.902344 285.363281 C 604.167969 288.445312 606.402344 288.441406 609.234375 288.441406 C 618.535156 288.441406 623.851562 282.824219 623.851562 273.078125 L 623.851562 219.832031 C 623.851562 219.035156 623.210938 218.382812 622.414062 218.382812 L 616.199219 218.382812 C 615.351562 218.382812 614.75 219.035156 614.75 219.832031 L 614.75 273.03125 C 614.75 277.40625 610.230469 281.679688 602.921875 278.050781 L 589.394531 270.242188 C 588.898438 269.996094 588.597656 269.449219 588.597656 268.902344 L 588.597656 217.34375 C 588.597656 216.746094 588.898438 216.242188 589.394531 215.945312 L 638.671875 187.511719 C 639.117188 187.210938 639.71875 187.210938 640.214844 187.511719 L 689.492188 215.945312 C 689.988281 216.242188 690.289062 216.75 690.289062 217.296875 L 690.289062 268.902344 C 690.289062 269.449219 689.988281 269.996094 689.542969 270.242188 L 640.214844 298.738281 C 639.769531 298.984375 639.117188 298.984375 638.671875 298.738281 L 625.988281 291.230469 C 625.640625 290.980469 625.152344 290.933594 624.804688 291.132812 C 621.273438 293.121094 620.625 293.367188 617.34375 294.511719 C 616.550781 294.761719 615.304688 295.257812 617.792969 296.648438 L 634.242188 306.398438 C 635.835938 307.292969 637.628906 307.789062 639.417969 307.789062 C 641.257812 307.789062 643.042969 307.292969 644.632812 306.398438 L 693.96875 277.90625 C 697.152344 276.066406 699.136719 272.632812 699.136719 268.902344 L 699.136719 217.34375 C 699.136719 213.613281 697.152344 210.179688 693.96875 208.339844 L 644.632812 179.847656 C 643.066406 178.953125 641.253906 178.507812 639.4375 178.507812 Z M 652.695312 218.316406 C 638.625 218.316406 630.222656 224.277344 630.222656 234.222656 C 630.222656 245.011719 638.566406 247.992188 652.09375 249.335938 C 668.253906 250.925781 669.496094 253.320312 669.496094 256.5 C 669.496094 261.972656 665.078125 264.308594 654.6875 264.308594 C 641.609375 264.308594 638.722656 261.023438 637.777344 254.558594 C 637.679688 253.863281 637.085938 253.363281 636.390625 253.363281 L 629.96875 253.363281 C 629.175781 253.363281 628.582031 254.015625 628.582031 254.761719 C 628.582031 263.066406 633.105469 272.953125 654.6875 272.953125 C 670.300781 272.953125 679.246094 266.792969 679.246094 256.054688 C 679.246094 245.414062 672.035156 242.574219 656.917969 240.535156 C 641.554688 238.546875 640.011719 237.5 640.011719 233.921875 C 640.011719 230.9375 641.359375 227.015625 652.695312 227.015625 C 662.789062 227.015625 666.566406 229.199219 668.109375 236.011719 C 668.257812 236.65625 668.800781 237.15625 669.496094 237.15625 L 675.914062 237.15625 C 676.3125 237.15625 676.65625 236.957031 676.953125 236.660156 C 677.203125 236.410156 677.355469 236.011719 677.304688 235.5625 C 676.308594 223.828125 668.507812 218.316406 652.695312 218.316406 Z M 652.695312 218.316406 " fill-opacity="1" fill-rule="nonzero"/></g><g clip-path="url(#7638630a6d)"><g clip-path="url(#bcfde8d1f8)"><path fill="#050606" d="M 81.171875 491.289062 L 260.230469 491.289062 L 260.230469 681.535156 L 81.171875 681.535156 Z M 81.171875 491.289062 " fill-opacity="1" fill-rule="nonzero"/></g></g><g clip-path="url(#b370368491)"><g clip-path="url(#09264c180e)"><path stroke-linecap="butt" transform="matrix(0.75, 0, 0, 0.75, 81.171693, 491.289451)" fill="none" stroke-linejoin="miter" d="M 28.000244 -0.000518379 L 210.734628 -0.000518379 C 226.198171 -0.000518379 238.73463 12.535941 238.73463 27.999483 L 238.73463 225.655743 C 238.73463 241.119285 226.198171 253.655744 210.734628 253.655744 L 28.000244 253.655744 C 12.536702 253.655744 0.000242645 241.119285 0.000242645 225.655743 L 0.000242645 27.999483 C 0.000242645 12.535941 12.536702 -0.000518379 28.000244 -0.000518379 Z M 28.000244 -0.000518379 " stroke="#545454" stroke-width="6" stroke-opacity="1" stroke-miterlimit="4"/></g></g><g clip-path="url(#cbf146a1cf)"><g clip-path="url(#863daa40c7)"><path fill="#050606" d="M 315.644531 491.289062 L 494.699219 491.289062 L 494.699219 681.535156 L 315.644531 681.535156 Z M 315.644531 491.289062 " fill-opacity="1" fill-rule="nonzero"/></g></g><g clip-path="url(#864e8acde1)"><g clip-path="url(#bcae4f625c)"><path stroke-linecap="butt" transform="matrix(0.75, 0, 0, 0.75, 315.643084, 491.289451)" fill="none" stroke-linejoin="miter" d="M 27.996722 -0.000518379 L 210.736315 -0.000518379 C 226.199857 -0.000518379 238.736316 12.535941 238.736316 27.999483 L 238.736316 225.655743 C 238.736316 241.119285 226.199857 253.655744 210.736315 253.655744 L 27.996722 253.655744 C 12.53318 253.655744 0.00192911 241.119285 0.00192911 225.655743 L 0.00192911 27.999483 C 0.00192911 12.535941 12.53318 -0.000518379 27.996722 -0.000518379 Z M 27.996722 -0.000518379 " stroke="#545454" stroke-width="6" stroke-opacity="1" stroke-miterlimit="4"/></g></g><g clip-path="url(#50397e5198)"><path fill="#ffffff" d="M 167.472656 516.976562 C 167.460938 517.09375 167.449219 517.171875 167.441406 517.28125 L 167.441406 517.363281 L 167.433594 517.363281 C 167.421875 517.457031 167.417969 517.519531 167.410156 517.609375 L 167.410156 517.703125 L 167.398438 517.703125 C 167.398438 517.765625 167.386719 517.8125 167.386719 517.863281 L 167.386719 518.027344 L 167.367188 518.027344 C 167.359375 518.078125 167.359375 518.140625 167.347656 518.183594 L 167.347656 518.316406 L 167.335938 518.316406 C 167.335938 518.359375 167.335938 518.410156 167.324219 518.445312 L 167.324219 518.570312 L 167.308594 518.570312 C 167.308594 518.632812 167.304688 518.707031 167.296875 518.769531 L 167.296875 518.785156 C 167.277344 518.890625 167.261719 518.996094 167.242188 519.097656 L 167.242188 519.144531 L 167.230469 519.144531 C 167.222656 519.171875 167.210938 519.195312 167.210938 519.222656 L 167.210938 519.328125 L 167.191406 519.328125 L 167.191406 519.464844 L 167.160156 519.464844 L 167.160156 519.578125 L 167.128906 519.578125 L 167.128906 519.707031 L 167.105469 519.707031 L 167.105469 519.828125 L 167.070312 519.828125 L 167.070312 519.933594 L 167.035156 519.933594 L 167.035156 520.023438 L 167.007812 520.023438 L 167.007812 520.132812 L 166.984375 520.132812 L 166.984375 520.222656 L 166.945312 520.222656 L 166.945312 520.304688 L 166.929688 520.304688 L 166.929688 520.398438 L 166.902344 520.398438 C 166.898438 520.402344 166.898438 520.414062 166.898438 520.421875 L 166.898438 520.484375 L 166.878906 520.484375 C 166.871094 520.496094 166.871094 520.507812 166.871094 520.523438 L 166.871094 520.558594 L 166.859375 520.558594 C 166.851562 520.578125 166.847656 520.609375 166.847656 520.621094 C 166.828125 520.664062 166.804688 520.710938 166.785156 520.753906 L 166.785156 520.765625 C 166.773438 520.777344 166.757812 520.796875 166.753906 520.808594 L 166.753906 520.859375 L 166.726562 520.859375 L 166.726562 520.910156 L 166.695312 520.910156 L 166.695312 520.960938 L 166.679688 520.960938 L 166.679688 521.023438 L 166.632812 521.023438 L 166.632812 521.109375 L 166.609375 521.109375 L 166.609375 521.132812 L 166.585938 521.132812 L 166.585938 521.183594 L 166.558594 521.183594 L 166.558594 521.253906 L 166.535156 521.253906 L 166.535156 521.304688 L 166.496094 521.304688 L 166.496094 521.371094 L 166.472656 521.371094 L 166.472656 521.421875 L 166.441406 521.421875 L 166.441406 521.472656 L 166.421875 521.472656 L 166.421875 521.535156 L 166.382812 521.535156 L 166.382812 521.585938 L 166.359375 521.585938 L 166.359375 521.621094 L 166.335938 521.621094 L 166.335938 521.671875 L 166.296875 521.671875 L 166.296875 521.730469 L 166.273438 521.730469 L 166.273438 521.765625 L 166.242188 521.765625 L 166.242188 521.816406 L 166.214844 521.816406 L 166.214844 521.886719 L 166.183594 521.886719 L 166.183594 521.910156 L 166.164062 521.910156 L 166.164062 521.960938 L 166.128906 521.960938 L 166.128906 521.984375 L 166.101562 521.984375 L 166.101562 522.046875 L 166.070312 522.046875 L 166.070312 522.074219 L 166.046875 522.074219 L 166.046875 522.121094 L 166.015625 522.121094 L 166.015625 522.160156 L 165.996094 522.160156 L 165.984375 522.183594 L 165.984375 522.210938 L 165.972656 522.210938 C 165.964844 522.222656 165.960938 522.222656 165.960938 522.234375 L 165.960938 522.242188 L 165.953125 522.242188 C 165.945312 522.261719 165.941406 522.273438 165.929688 522.285156 L 165.929688 522.304688 L 165.921875 522.304688 C 165.890625 522.339844 165.871094 522.378906 165.847656 522.417969 L 165.847656 522.421875 C 165.835938 522.433594 165.804688 522.460938 165.789062 522.484375 L 165.789062 522.496094 L 165.785156 522.496094 C 165.777344 522.503906 165.765625 522.511719 165.765625 522.515625 L 165.765625 522.535156 L 165.753906 522.535156 L 165.734375 522.554688 L 165.734375 522.558594 L 165.726562 522.558594 C 165.726562 522.566406 165.714844 522.574219 165.710938 522.585938 L 165.710938 522.609375 L 165.691406 522.609375 L 165.679688 522.621094 L 165.679688 522.636719 L 165.664062 522.636719 C 165.664062 522.648438 165.652344 522.648438 165.652344 522.652344 L 165.652344 522.671875 L 165.628906 522.671875 C 165.628906 522.679688 165.621094 522.683594 165.617188 522.691406 L 165.617188 522.730469 L 165.597656 522.730469 L 165.597656 522.753906 L 165.570312 522.753906 L 165.570312 522.792969 L 165.546875 522.792969 L 165.546875 522.839844 L 165.515625 522.839844 L 165.515625 522.792969 L 165.484375 522.792969 L 165.484375 522.816406 L 165.445312 522.816406 L 165.445312 522.855469 L 165.414062 522.855469 L 165.414062 522.902344 L 165.382812 522.902344 L 165.382812 522.929688 L 165.359375 522.929688 L 165.359375 522.964844 L 165.332031 522.964844 L 165.332031 522.992188 L 165.308594 522.992188 L 165.308594 523.042969 L 165.269531 523.042969 L 165.269531 523.066406 L 165.246094 523.066406 L 165.246094 523.105469 L 165.214844 523.105469 L 165.214844 523.128906 L 165.191406 523.128906 L 165.191406 523.160156 L 165.160156 523.160156 L 165.160156 523.222656 L 165.144531 523.222656 L 165.144531 523.25 L 165.109375 523.25 L 165.109375 523.28125 L 165.082031 523.28125 L 165.082031 523.292969 L 165.058594 523.292969 L 165.058594 523.316406 L 165.027344 523.316406 L 165.027344 523.378906 L 165.003906 523.378906 L 165.003906 523.40625 L 164.972656 523.40625 L 164.972656 523.429688 L 164.945312 523.429688 L 164.945312 523.46875 L 164.914062 523.46875 L 164.914062 523.492188 L 164.882812 523.492188 L 164.882812 523.515625 L 164.859375 523.515625 L 164.859375 523.542969 L 164.820312 523.542969 L 164.820312 523.605469 L 164.796875 523.605469 L 164.796875 523.636719 L 164.757812 523.636719 L 164.757812 523.660156 L 164.734375 523.660156 L 164.734375 523.6875 L 164.695312 523.6875 L 164.695312 523.722656 L 164.671875 523.722656 L 164.671875 523.75 L 164.640625 523.75 L 164.640625 523.792969 L 164.613281 523.792969 L 164.613281 523.816406 L 164.578125 523.816406 L 164.578125 523.855469 L 164.566406 523.855469 L 164.566406 523.878906 L 164.539062 523.878906 L 164.539062 523.90625 L 164.507812 523.90625 L 164.507812 523.929688 L 164.484375 523.929688 L 164.484375 523.96875 L 164.453125 523.96875 L 164.453125 523.992188 L 164.433594 523.992188 C 164.425781 524 164.425781 524.003906 164.425781 524.003906 L 164.425781 524.015625 L 164.414062 524.015625 L 164.382812 524.042969 C 164.382812 524.042969 164.371094 524.054688 164.359375 524.0625 L 164.359375 524.097656 L 164.332031 524.097656 L 164.332031 524.128906 L 164.308594 524.128906 L 164.308594 524.15625 L 164.285156 524.15625 L 164.285156 524.179688 L 164.265625 524.179688 L 164.246094 524.199219 L 164.246094 524.21875 L 164.234375 524.21875 L 164.222656 524.230469 L 164.222656 524.25 L 164.207031 524.25 C 164.175781 524.285156 164.164062 524.3125 164.121094 524.347656 C 164.109375 524.359375 164.070312 524.390625 164.046875 524.410156 C 163.972656 524.460938 163.871094 524.542969 163.796875 524.609375 C 163.746094 524.640625 163.695312 524.6875 163.65625 524.71875 L 163.65625 524.722656 L 163.652344 524.722656 C 163.550781 524.804688 163.453125 524.878906 163.339844 524.96875 L 163.339844 524.972656 C 163.1875 525.097656 163.039062 525.21875 162.863281 525.363281 L 162.863281 525.355469 L 162.851562 525.355469 C 162.488281 525.648438 162.101562 525.980469 161.664062 526.347656 L 161.664062 526.355469 L 161.65625 526.355469 C 160.574219 527.28125 159.292969 528.46875 157.855469 529.90625 L 157.738281 530.027344 C 149.046875 538.824219 135.34375 557.15625 133.902344 586.785156 C 133.777344 589.234375 133.800781 591.617188 133.9375 593.9375 L 133.9375 593.992188 C 134.632812 605.667969 138.378906 615.636719 143.066406 623.734375 L 143.066406 623.738281 C 144.929688 626.964844 146.945312 629.898438 148.988281 632.523438 L 148.988281 632.53125 C 156.03125 641.628906 163.21875 647.019531 165.058594 648.324219 C 167.878906 654.722656 167.617188 665.703125 167.617188 665.703125 L 171.71875 667.046875 C 171.71875 667.046875 170.878906 656.410156 172.054688 651.277344 C 172.417969 649.667969 173.28125 648.300781 174.289062 647.136719 C 174.964844 646.667969 176.96875 645.253906 179.382812 643.105469 C 179.496094 642.984375 179.566406 642.878906 179.664062 642.765625 C 189.390625 633.898438 207.546875 612.066406 201.320312 576.492188 C 193.246094 541.726562 174.207031 530.300781 172.164062 525.929688 C 169.90625 522.847656 167.472656 516.976562 167.472656 516.976562 Z M 167.472656 516.976562 " fill-opacity="1" fill-rule="nonzero"/></g><g clip-path="url(#34ee031bd7)"><path fill="#ffffff" d="M 432.871094 539.441406 C 432.121094 539.441406 431.4375 540.039062 431.4375 540.875 L 431.4375 567.082031 L 425.496094 563.617188 C 425.125 563.398438 424.703125 563.292969 424.285156 563.292969 C 423.863281 563.292969 423.445312 563.398438 423.074219 563.617188 L 408.796875 571.945312 C 408.054688 572.375 407.59375 573.167969 407.59375 574.019531 L 407.59375 590.691406 C 407.59375 591.550781 408.054688 592.339844 408.796875 592.769531 L 423.074219 601.09375 C 423.445312 601.3125 423.863281 601.421875 424.285156 601.421875 C 424.703125 601.421875 425.125 601.3125 425.496094 601.09375 L 439.773438 592.769531 C 440.515625 592.339844 440.972656 591.546875 440.972656 590.691406 L 440.972656 545.308594 C 440.972656 544.460938 440.519531 543.679688 439.792969 543.25 L 433.578125 539.636719 C 433.34375 539.503906 433.109375 539.441406 432.871094 539.441406 Z M 386.136719 563.292969 C 385.71875 563.292969 385.300781 563.402344 384.925781 563.617188 L 370.648438 571.945312 C 369.90625 572.375 369.449219 573.167969 369.449219 574.019531 L 369.449219 590.691406 C 369.449219 591.550781 369.90625 592.339844 370.648438 592.769531 L 384.925781 601.09375 C 385.675781 601.527344 386.597656 601.527344 387.347656 601.09375 L 401.625 592.769531 C 402.371094 592.339844 402.828125 591.546875 402.828125 590.691406 L 402.828125 574.019531 C 402.828125 573.164062 402.371094 572.375 401.625 571.945312 L 387.347656 563.617188 C 386.972656 563.402344 386.554688 563.292969 386.136719 563.292969 Z M 462.433594 563.292969 C 462.011719 563.292969 461.59375 563.398438 461.222656 563.617188 L 446.945312 571.945312 C 446.199219 572.375 445.742188 573.167969 445.742188 574.019531 L 445.742188 590.691406 C 445.742188 591.550781 446.199219 592.339844 446.945312 592.769531 L 460.792969 601.140625 C 461.535156 601.59375 462.46875 601.597656 463.222656 601.160156 L 470.03125 597.203125 C 470.738281 596.796875 470.742188 595.773438 470.03125 595.359375 L 455.277344 586.667969 L 455.277344 578.109375 L 462.433594 573.945312 L 469.585938 578.109375 L 469.585938 584.070312 C 469.585938 584.867188 470.253906 584.988281 470.703125 584.722656 C 472.503906 583.664062 477.9375 580.511719 477.9375 580.511719 C 478.667969 580.089844 479.121094 579.304688 479.121094 578.453125 L 479.121094 574.019531 C 479.121094 573.164062 478.664062 572.375 477.917969 571.945312 L 463.640625 563.617188 C 463.265625 563.398438 462.851562 563.292969 462.433594 563.292969 Z M 347.992188 563.300781 C 347.570312 563.300781 347.152344 563.410156 346.78125 563.628906 L 332.503906 571.945312 C 331.757812 572.378906 331.300781 573.171875 331.300781 574.03125 L 331.300781 595.3125 C 331.300781 596.351562 332.425781 596.996094 333.320312 596.476562 L 339.65625 592.789062 C 340.382812 592.359375 340.835938 591.578125 340.835938 590.730469 L 340.835938 578.128906 L 347.992188 573.957031 L 355.144531 578.128906 L 355.144531 590.730469 C 355.144531 591.578125 355.597656 592.359375 356.324219 592.789062 L 362.660156 596.476562 C 363.554688 597 364.679688 596.351562 364.679688 595.3125 L 364.679688 574.03125 C 364.679688 573.171875 364.222656 572.378906 363.476562 571.945312 L 349.199219 563.628906 C 348.828125 563.410156 348.410156 563.300781 347.992188 563.300781 Z M 424.285156 573.945312 L 431.4375 578.117188 L 431.4375 586.59375 L 424.285156 590.765625 L 417.132812 586.59375 L 417.132812 578.117188 Z M 462.433594 577.605469 L 458.34375 579.992188 L 458.34375 584.75 L 462.433594 587.125 L 466.519531 584.75 L 466.519531 579.992188 Z M 404.765625 596.652344 C 404.273438 596.652344 403.777344 596.773438 403.347656 597.015625 L 389.9375 604.765625 C 389.054688 605.25 388.523438 606.207031 388.523438 607.203125 L 388.523438 622.683594 C 388.523438 623.679688 389.078125 624.617188 389.9375 625.125 L 393.46875 627.136719 C 395.160156 627.96875 395.78125 627.972656 396.550781 627.972656 C 399.078125 627.972656 400.515625 626.460938 400.515625 623.792969 L 400.515625 608.5 C 400.515625 608.265625 400.335938 608.097656 400.125 608.097656 L 398.429688 608.097656 C 398.199219 608.097656 398.03125 608.289062 398.03125 608.5 L 398.03125 623.792969 C 398.03125 624.949219 396.804688 626.136719 394.808594 625.140625 L 391.140625 623.027344 C 391.019531 622.957031 390.933594 622.8125 390.933594 622.671875 L 390.933594 607.195312 C 390.933594 607.058594 391 606.894531 391.140625 606.824219 L 404.550781 599.09375 C 404.691406 599.019531 404.855469 599.019531 404.96875 599.09375 L 418.390625 606.824219 C 418.527344 606.894531 418.59375 607.03125 418.59375 607.195312 L 418.59375 622.671875 C 418.59375 622.835938 418.503906 622.976562 418.390625 623.046875 L 404.96875 630.804688 C 404.851562 630.875 404.664062 630.875 404.550781 630.804688 L 401.121094 628.765625 C 401.03125 628.71875 400.886719 628.6875 400.796875 628.738281 C 399.847656 629.292969 399.65625 629.367188 398.777344 629.667969 C 398.542969 629.738281 398.222656 629.882812 398.898438 630.253906 L 403.347656 632.898438 C 403.792969 633.132812 404.277344 633.273438 404.765625 633.273438 C 405.273438 633.273438 405.769531 633.132812 406.160156 632.882812 L 419.570312 625.125 C 420.453125 624.636719 420.988281 623.679688 420.988281 622.683594 L 420.988281 607.203125 C 420.988281 606.207031 420.429688 605.273438 419.570312 604.765625 L 406.160156 597.015625 C 405.742188 596.773438 405.253906 596.652344 404.765625 596.652344 Z M 425.679688 603.796875 C 424.3125 603.796875 423.109375 604.902344 423.109375 606.367188 C 423.109375 607.78125 424.265625 608.945312 425.679688 608.945312 C 427.097656 608.945312 428.253906 607.78125 428.253906 606.367188 C 428.253906 604.902344 427.074219 603.773438 425.679688 603.796875 Z M 425.652344 604.207031 C 426.863281 604.207031 427.84375 605.160156 427.84375 606.367188 C 427.84375 607.546875 426.859375 608.527344 425.652344 608.554688 C 424.464844 608.554688 423.503906 607.574219 423.503906 606.367188 C 423.503906 605.160156 424.472656 604.207031 425.652344 604.207031 Z M 424.714844 604.902344 L 424.714844 607.800781 L 425.261719 607.800781 L 425.261719 606.644531 L 425.773438 606.644531 C 425.984375 606.644531 426.035156 606.734375 426.082031 606.898438 C 426.082031 606.921875 426.171875 607.671875 426.195312 607.808594 L 426.789062 607.808594 C 426.722656 607.671875 426.675781 607.273438 426.648438 607.035156 C 426.582031 606.664062 426.5625 606.410156 426.164062 606.386719 C 426.375 606.3125 426.726562 606.203125 426.726562 605.667969 C 426.726562 604.898438 426.058594 604.902344 425.710938 604.902344 Z M 425.261719 605.371094 L 425.726562 605.371094 C 425.871094 605.371094 426.148438 605.363281 426.148438 605.761719 C 426.148438 605.921875 426.078125 606.183594 425.699219 606.179688 L 425.261719 606.179688 Z M 408.359375 607.734375 C 404.53125 607.734375 402.257812 609.367188 402.257812 612.054688 C 402.257812 615.003906 404.535156 615.792969 408.199219 616.164062 C 412.585938 616.601562 412.933594 617.234375 412.933594 618.089844 C 412.933594 619.597656 411.722656 620.222656 408.890625 620.222656 C 405.335938 620.222656 404.554688 619.34375 404.296875 617.578125 C 404.273438 617.394531 404.109375 617.253906 403.898438 617.253906 L 402.15625 617.253906 C 401.945312 617.253906 401.765625 617.421875 401.765625 617.652344 C 401.765625 619.90625 402.992188 622.597656 408.863281 622.597656 C 413.167969 622.59375 415.605469 620.925781 415.605469 618 C 415.605469 615.097656 413.652344 614.328125 409.523438 613.769531 C 405.347656 613.210938 404.933594 612.933594 404.933594 611.953125 C 404.933594 611.144531 405.273438 610.082031 408.359375 610.082031 C 411.121094 610.082031 412.148438 610.6875 412.570312 612.539062 C 412.617188 612.726562 412.746094 612.839844 412.933594 612.839844 L 414.671875 612.839844 C 414.789062 612.839844 414.886719 612.792969 414.953125 612.726562 C 415.023438 612.636719 415.070312 612.542969 415.046875 612.429688 C 414.769531 609.226562 412.65625 607.734375 408.359375 607.734375 Z M 408.359375 607.734375 " fill-opacity="1" fill-rule="nonzero"/></g><g fill="#ffffff" fill-opacity="1"><g transform="translate(81.171693, 105.179194)"><g><path d="M 20.71875 -30.671875 L 20.71875 -27.40625 L 7.390625 -27.40625 L 7.390625 -17.078125 L 18.21875 -17.078125 L 18.21875 -13.8125 L 7.390625 -13.8125 L 7.390625 0 L 3.390625 0 L 3.390625 -30.671875 Z M 20.71875 -30.671875 "/></g></g></g><g fill="#ffffff" fill-opacity="1"><g transform="translate(103.343739, 105.179194)"><g><path d="M 7.390625 -20.203125 C 8.097656 -21.578125 9.101562 -22.644531 10.40625 -23.40625 C 11.707031 -24.164062 13.300781 -24.546875 15.1875 -24.546875 L 15.1875 -20.421875 L 14.125 -20.421875 C 9.632812 -20.421875 7.390625 -17.984375 7.390625 -13.109375 L 7.390625 0 L 3.390625 0 L 3.390625 -24.109375 L 7.390625 -24.109375 Z M 7.390625 -20.203125 "/></g></g></g><g fill="#ffffff" fill-opacity="1"><g transform="translate(119.752815, 105.179194)"><g><path d="M 13.90625 0.390625 C 11.644531 0.390625 9.597656 -0.117188 7.765625 -1.140625 C 5.929688 -2.171875 4.492188 -3.628906 3.453125 -5.515625 C 2.410156 -7.410156 1.890625 -9.601562 1.890625 -12.09375 C 1.890625 -14.5625 2.425781 -16.738281 3.5 -18.625 C 4.570312 -20.519531 6.03125 -21.972656 7.875 -22.984375 C 9.71875 -24.003906 11.785156 -24.515625 14.078125 -24.515625 C 16.367188 -24.515625 18.4375 -24.003906 20.28125 -22.984375 C 22.132812 -21.972656 23.59375 -20.53125 24.65625 -18.65625 C 25.726562 -16.78125 26.265625 -14.59375 26.265625 -12.09375 C 26.265625 -9.601562 25.710938 -7.410156 24.609375 -5.515625 C 23.515625 -3.628906 22.03125 -2.171875 20.15625 -1.140625 C 18.28125 -0.117188 16.195312 0.390625 13.90625 0.390625 Z M 13.90625 -3.125 C 15.34375 -3.125 16.691406 -3.457031 17.953125 -4.125 C 19.210938 -4.800781 20.226562 -5.816406 21 -7.171875 C 21.78125 -8.523438 22.171875 -10.164062 22.171875 -12.09375 C 22.171875 -14.03125 21.789062 -15.671875 21.03125 -17.015625 C 20.269531 -18.367188 19.269531 -19.375 18.03125 -20.03125 C 16.800781 -20.695312 15.46875 -21.03125 14.03125 -21.03125 C 12.570312 -21.03125 11.234375 -20.695312 10.015625 -20.03125 C 8.796875 -19.375 7.816406 -18.367188 7.078125 -17.015625 C 6.347656 -15.671875 5.984375 -14.03125 5.984375 -12.09375 C 5.984375 -10.132812 6.34375 -8.476562 7.0625 -7.125 C 7.78125 -5.78125 8.738281 -4.773438 9.9375 -4.109375 C 11.144531 -3.453125 12.46875 -3.125 13.90625 -3.125 Z M 13.90625 -3.125 "/></g></g></g><g fill="#ffffff" fill-opacity="1"><g transform="translate(147.907797, 105.179194)"><g><path d="M 15.140625 -24.546875 C 18.066406 -24.546875 20.4375 -23.660156 22.25 -21.890625 C 24.070312 -20.117188 24.984375 -17.5625 24.984375 -14.21875 L 24.984375 0 L 21.03125 0 L 21.03125 -13.640625 C 21.03125 -16.046875 20.425781 -17.882812 19.21875 -19.15625 C 18.019531 -20.4375 16.378906 -21.078125 14.296875 -21.078125 C 12.179688 -21.078125 10.5 -20.414062 9.25 -19.09375 C 8.007812 -17.769531 7.390625 -15.847656 7.390625 -13.328125 L 7.390625 0 L 3.390625 0 L 3.390625 -24.109375 L 7.390625 -24.109375 L 7.390625 -20.6875 C 8.179688 -21.914062 9.257812 -22.863281 10.625 -23.53125 C 11.988281 -24.207031 13.492188 -24.546875 15.140625 -24.546875 Z M 15.140625 -24.546875 "/></g></g></g><g fill="#ffffff" fill-opacity="1"><g transform="translate(176.062779, 105.179194)"><g><path d="M 8.265625 -20.8125 L 8.265625 -6.59375 C 8.265625 -5.425781 8.515625 -4.597656 9.015625 -4.109375 C 9.515625 -3.628906 10.378906 -3.390625 11.609375 -3.390625 L 14.5625 -3.390625 L 14.5625 0 L 10.953125 0 C 8.722656 0 7.050781 -0.507812 5.9375 -1.53125 C 4.820312 -2.5625 4.265625 -4.25 4.265625 -6.59375 L 4.265625 -20.8125 L 1.140625 -20.8125 L 1.140625 -24.109375 L 4.265625 -24.109375 L 4.265625 -30.1875 L 8.265625 -30.1875 L 8.265625 -24.109375 L 14.5625 -24.109375 L 14.5625 -20.8125 Z M 8.265625 -20.8125 "/></g></g></g><g fill="#ffffff" fill-opacity="1"><g transform="translate(192.075924, 105.179194)"><g><path d="M 7.390625 -27.40625 L 7.390625 -17.15625 L 18.5625 -17.15625 L 18.5625 -13.859375 L 7.390625 -13.859375 L 7.390625 -3.296875 L 19.890625 -3.296875 L 19.890625 0 L 3.390625 0 L 3.390625 -30.71875 L 19.890625 -30.71875 L 19.890625 -27.40625 Z M 7.390625 -27.40625 "/></g></g></g><g fill="#ffffff" fill-opacity="1"><g transform="translate(214.6439, 105.179194)"><g><path d="M 15.140625 -24.546875 C 18.066406 -24.546875 20.4375 -23.660156 22.25 -21.890625 C 24.070312 -20.117188 24.984375 -17.5625 24.984375 -14.21875 L 24.984375 0 L 21.03125 0 L 21.03125 -13.640625 C 21.03125 -16.046875 20.425781 -17.882812 19.21875 -19.15625 C 18.019531 -20.4375 16.378906 -21.078125 14.296875 -21.078125 C 12.179688 -21.078125 10.5 -20.414062 9.25 -19.09375 C 8.007812 -17.769531 7.390625 -15.847656 7.390625 -13.328125 L 7.390625 0 L 3.390625 0 L 3.390625 -24.109375 L 7.390625 -24.109375 L 7.390625 -20.6875 C 8.179688 -21.914062 9.257812 -22.863281 10.625 -23.53125 C 11.988281 -24.207031 13.492188 -24.546875 15.140625 -24.546875 Z M 15.140625 -24.546875 "/></g></g></g><g fill="#ffffff" fill-opacity="1"><g transform="translate(242.798882, 105.179194)"><g><path d="M 1.890625 -12.140625 C 1.890625 -14.609375 2.390625 -16.769531 3.390625 -18.625 C 4.390625 -20.488281 5.757812 -21.9375 7.5 -22.96875 C 9.25 -24 11.207031 -24.515625 13.375 -24.515625 C 15.25 -24.515625 16.992188 -24.078125 18.609375 -23.203125 C 20.222656 -22.335938 21.457031 -21.203125 22.3125 -19.796875 L 22.3125 -32.5625 L 26.359375 -32.5625 L 26.359375 0 L 22.3125 0 L 22.3125 -4.53125 C 21.519531 -3.09375 20.34375 -1.910156 18.78125 -0.984375 C 17.226562 -0.0664062 15.410156 0.390625 13.328125 0.390625 C 11.191406 0.390625 9.25 -0.132812 7.5 -1.1875 C 5.757812 -2.238281 4.390625 -3.71875 3.390625 -5.625 C 2.390625 -7.53125 1.890625 -9.703125 1.890625 -12.140625 Z M 22.3125 -12.09375 C 22.3125 -13.914062 21.941406 -15.5 21.203125 -16.84375 C 20.472656 -18.195312 19.484375 -19.234375 18.234375 -19.953125 C 16.992188 -20.671875 15.625 -21.03125 14.125 -21.03125 C 12.625 -21.03125 11.257812 -20.675781 10.03125 -19.96875 C 8.800781 -19.269531 7.816406 -18.242188 7.078125 -16.890625 C 6.347656 -15.546875 5.984375 -13.960938 5.984375 -12.140625 C 5.984375 -10.296875 6.347656 -8.691406 7.078125 -7.328125 C 7.816406 -5.960938 8.800781 -4.921875 10.03125 -4.203125 C 11.257812 -3.484375 12.625 -3.125 14.125 -3.125 C 15.625 -3.125 16.992188 -3.484375 18.234375 -4.203125 C 19.484375 -4.921875 20.472656 -5.960938 21.203125 -7.328125 C 21.941406 -8.691406 22.3125 -10.28125 22.3125 -12.09375 Z M 22.3125 -12.09375 "/></g></g></g><g fill="#ffffff" fill-opacity="1"><g transform="translate(272.537578, 105.179194)"><g><path d="M 4.65625 0.265625 C 3.894531 0.265625 3.25 0.00390625 2.71875 -0.515625 C 2.195312 -1.046875 1.9375 -1.695312 1.9375 -2.46875 C 1.9375 -3.226562 2.195312 -3.867188 2.71875 -4.390625 C 3.25 -4.921875 3.894531 -5.1875 4.65625 -5.1875 C 5.394531 -5.1875 6.019531 -4.921875 6.53125 -4.390625 C 7.039062 -3.867188 7.296875 -3.226562 7.296875 -2.46875 C 7.296875 -1.695312 7.039062 -1.046875 6.53125 -0.515625 C 6.019531 0.00390625 5.394531 0.265625 4.65625 0.265625 Z M 4.65625 -18.5625 C 3.894531 -18.5625 3.25 -18.820312 2.71875 -19.34375 C 2.195312 -19.875 1.9375 -20.523438 1.9375 -21.296875 C 1.9375 -22.054688 2.195312 -22.695312 2.71875 -23.21875 C 3.25 -23.75 3.894531 -24.015625 4.65625 -24.015625 C 5.394531 -24.015625 6.019531 -23.75 6.53125 -23.21875 C 7.039062 -22.695312 7.296875 -22.054688 7.296875 -21.296875 C 7.296875 -20.523438 7.039062 -19.875 6.53125 -19.34375 C 6.019531 -18.820312 5.394531 -18.5625 4.65625 -18.5625 Z M 4.65625 -18.5625 "/></g></g></g><g fill="#ffffff" fill-opacity="1"><g transform="translate(81.171693, 464.783517)"><g><path d="M 18.75 -15.796875 C 19.863281 -15.617188 20.878906 -15.160156 21.796875 -14.421875 C 22.722656 -13.691406 23.457031 -12.785156 24 -11.703125 C 24.539062 -10.617188 24.8125 -9.460938 24.8125 -8.234375 C 24.8125 -6.671875 24.414062 -5.265625 23.625 -4.015625 C 22.832031 -2.773438 21.679688 -1.796875 20.171875 -1.078125 C 18.660156 -0.359375 16.878906 0 14.828125 0 L 3.390625 0 L 3.390625 -30.671875 L 14.390625 -30.671875 C 16.472656 -30.671875 18.242188 -30.320312 19.703125 -29.625 C 21.171875 -28.9375 22.269531 -28.003906 23 -26.828125 C 23.738281 -25.660156 24.109375 -24.34375 24.109375 -22.875 C 24.109375 -21.0625 23.613281 -19.5625 22.625 -18.375 C 21.644531 -17.1875 20.351562 -16.328125 18.75 -15.796875 Z M 7.390625 -17.421875 L 14.125 -17.421875 C 16 -17.421875 17.445312 -17.859375 18.46875 -18.734375 C 19.5 -19.617188 20.015625 -20.835938 20.015625 -22.390625 C 20.015625 -23.953125 19.5 -25.171875 18.46875 -26.046875 C 17.445312 -26.929688 15.96875 -27.375 14.03125 -27.375 L 7.390625 -27.375 Z M 14.46875 -3.296875 C 16.46875 -3.296875 18.023438 -3.765625 19.140625 -4.703125 C 20.253906 -5.640625 20.8125 -6.945312 20.8125 -8.625 C 20.8125 -10.320312 20.222656 -11.660156 19.046875 -12.640625 C 17.878906 -13.628906 16.3125 -14.125 14.34375 -14.125 L 7.390625 -14.125 L 7.390625 -3.296875 Z M 14.46875 -3.296875 "/></g></g></g><g fill="#ffffff" fill-opacity="1"><g transform="translate(108.138881, 464.783517)"><g><path d="M 1.890625 -12.140625 C 1.890625 -14.609375 2.390625 -16.769531 3.390625 -18.625 C 4.390625 -20.488281 5.757812 -21.9375 7.5 -22.96875 C 9.25 -24 11.191406 -24.515625 13.328125 -24.515625 C 15.441406 -24.515625 17.273438 -24.054688 18.828125 -23.140625 C 20.378906 -22.234375 21.539062 -21.09375 22.3125 -19.71875 L 22.3125 -24.109375 L 26.359375 -24.109375 L 26.359375 0 L 22.3125 0 L 22.3125 -4.484375 C 21.519531 -3.078125 20.335938 -1.910156 18.765625 -0.984375 C 17.191406 -0.0664062 15.363281 0.390625 13.28125 0.390625 C 11.144531 0.390625 9.210938 -0.132812 7.484375 -1.1875 C 5.753906 -2.238281 4.390625 -3.71875 3.390625 -5.625 C 2.390625 -7.53125 1.890625 -9.703125 1.890625 -12.140625 Z M 22.3125 -12.09375 C 22.3125 -13.914062 21.941406 -15.5 21.203125 -16.84375 C 20.472656 -18.195312 19.484375 -19.234375 18.234375 -19.953125 C 16.992188 -20.671875 15.625 -21.03125 14.125 -21.03125 C 12.625 -21.03125 11.257812 -20.675781 10.03125 -19.96875 C 8.800781 -19.269531 7.816406 -18.242188 7.078125 -16.890625 C 6.347656 -15.546875 5.984375 -13.960938 5.984375 -12.140625 C 5.984375 -10.296875 6.347656 -8.691406 7.078125 -7.328125 C 7.816406 -5.960938 8.800781 -4.921875 10.03125 -4.203125 C 11.257812 -3.484375 12.625 -3.125 14.125 -3.125 C 15.625 -3.125 16.992188 -3.484375 18.234375 -4.203125 C 19.484375 -4.921875 20.472656 -5.960938 21.203125 -7.328125 C 21.941406 -8.691406 22.3125 -10.28125 22.3125 -12.09375 Z M 22.3125 -12.09375 "/></g></g></g><g fill="#ffffff" fill-opacity="1"><g transform="translate(137.877577, 464.783517)"><g><path d="M 1.890625 -12.09375 C 1.890625 -14.59375 2.390625 -16.769531 3.390625 -18.625 C 4.390625 -20.488281 5.773438 -21.9375 7.546875 -22.96875 C 9.316406 -24 11.347656 -24.515625 13.640625 -24.515625 C 16.597656 -24.515625 19.035156 -23.796875 20.953125 -22.359375 C 22.878906 -20.921875 24.148438 -18.925781 24.765625 -16.375 L 20.453125 -16.375 C 20.046875 -17.832031 19.25 -18.988281 18.0625 -19.84375 C 16.875 -20.695312 15.398438 -21.125 13.640625 -21.125 C 11.347656 -21.125 9.5 -20.335938 8.09375 -18.765625 C 6.6875 -17.191406 5.984375 -14.96875 5.984375 -12.09375 C 5.984375 -9.195312 6.6875 -6.953125 8.09375 -5.359375 C 9.5 -3.773438 11.347656 -2.984375 13.640625 -2.984375 C 15.398438 -2.984375 16.863281 -3.394531 18.03125 -4.21875 C 19.207031 -5.039062 20.015625 -6.21875 20.453125 -7.75 L 24.765625 -7.75 C 24.117188 -5.28125 22.828125 -3.304688 20.890625 -1.828125 C 18.960938 -0.347656 16.546875 0.390625 13.640625 0.390625 C 11.347656 0.390625 9.316406 -0.117188 7.546875 -1.140625 C 5.773438 -2.171875 4.390625 -3.625 3.390625 -5.5 C 2.390625 -7.375 1.890625 -9.570312 1.890625 -12.09375 Z M 1.890625 -12.09375 "/></g></g></g><g fill="#ffffff" fill-opacity="1"><g transform="translate(164.580819, 464.783517)"><g><path d="M 16.859375 0 L 7.390625 -10.640625 L 7.390625 0 L 3.390625 0 L 3.390625 -32.5625 L 7.390625 -32.5625 L 7.390625 -13.421875 L 16.671875 -24.109375 L 22.265625 -24.109375 L 10.90625 -12.09375 L 22.3125 0 Z M 16.859375 0 "/></g></g></g><g fill="#ffffff" fill-opacity="1"><g transform="translate(187.236778, 464.783517)"><g><path d="M 7.390625 -27.40625 L 7.390625 -17.15625 L 18.5625 -17.15625 L 18.5625 -13.859375 L 7.390625 -13.859375 L 7.390625 -3.296875 L 19.890625 -3.296875 L 19.890625 0 L 3.390625 0 L 3.390625 -30.71875 L 19.890625 -30.71875 L 19.890625 -27.40625 Z M 7.390625 -27.40625 "/></g></g></g><g fill="#ffffff" fill-opacity="1"><g transform="translate(209.804754, 464.783517)"><g><path d="M 15.140625 -24.546875 C 18.066406 -24.546875 20.4375 -23.660156 22.25 -21.890625 C 24.070312 -20.117188 24.984375 -17.5625 24.984375 -14.21875 L 24.984375 0 L 21.03125 0 L 21.03125 -13.640625 C 21.03125 -16.046875 20.425781 -17.882812 19.21875 -19.15625 C 18.019531 -20.4375 16.378906 -21.078125 14.296875 -21.078125 C 12.179688 -21.078125 10.5 -20.414062 9.25 -19.09375 C 8.007812 -17.769531 7.390625 -15.847656 7.390625 -13.328125 L 7.390625 0 L 3.390625 0 L 3.390625 -24.109375 L 7.390625 -24.109375 L 7.390625 -20.6875 C 8.179688 -21.914062 9.257812 -22.863281 10.625 -23.53125 C 11.988281 -24.207031 13.492188 -24.546875 15.140625 -24.546875 Z M 15.140625 -24.546875 "/></g></g></g><g fill="#ffffff" fill-opacity="1"><g transform="translate(237.959736, 464.783517)"><g><path d="M 1.890625 -12.140625 C 1.890625 -14.609375 2.390625 -16.769531 3.390625 -18.625 C 4.390625 -20.488281 5.757812 -21.9375 7.5 -22.96875 C 9.25 -24 11.207031 -24.515625 13.375 -24.515625 C 15.25 -24.515625 16.992188 -24.078125 18.609375 -23.203125 C 20.222656 -22.335938 21.457031 -21.203125 22.3125 -19.796875 L 22.3125 -32.5625 L 26.359375 -32.5625 L 26.359375 0 L 22.3125 0 L 22.3125 -4.53125 C 21.519531 -3.09375 20.34375 -1.910156 18.78125 -0.984375 C 17.226562 -0.0664062 15.410156 0.390625 13.328125 0.390625 C 11.191406 0.390625 9.25 -0.132812 7.5 -1.1875 C 5.757812 -2.238281 4.390625 -3.71875 3.390625 -5.625 C 2.390625 -7.53125 1.890625 -9.703125 1.890625 -12.140625 Z M 22.3125 -12.09375 C 22.3125 -13.914062 21.941406 -15.5 21.203125 -16.84375 C 20.472656 -18.195312 19.484375 -19.234375 18.234375 -19.953125 C 16.992188 -20.671875 15.625 -21.03125 14.125 -21.03125 C 12.625 -21.03125 11.257812 -20.675781 10.03125 -19.96875 C 8.800781 -19.269531 7.816406 -18.242188 7.078125 -16.890625 C 6.347656 -15.546875 5.984375 -13.960938 5.984375 -12.140625 C 5.984375 -10.296875 6.347656 -8.691406 7.078125 -7.328125 C 7.816406 -5.960938 8.800781 -4.921875 10.03125 -4.203125 C 11.257812 -3.484375 12.625 -3.125 14.125 -3.125 C 15.625 -3.125 16.992188 -3.484375 18.234375 -4.203125 C 19.484375 -4.921875 20.472656 -5.960938 21.203125 -7.328125 C 21.941406 -8.691406 22.3125 -10.28125 22.3125 -12.09375 Z M 22.3125 -12.09375 "/></g></g></g><g fill="#ffffff" fill-opacity="1"><g transform="translate(267.698432, 464.783517)"><g><path d="M 4.65625 0.265625 C 3.894531 0.265625 3.25 0.00390625 2.71875 -0.515625 C 2.195312 -1.046875 1.9375 -1.695312 1.9375 -2.46875 C 1.9375 -3.226562 2.195312 -3.867188 2.71875 -4.390625 C 3.25 -4.921875 3.894531 -5.1875 4.65625 -5.1875 C 5.394531 -5.1875 6.019531 -4.921875 6.53125 -4.390625 C 7.039062 -3.867188 7.296875 -3.226562 7.296875 -2.46875 C 7.296875 -1.695312 7.039062 -1.046875 6.53125 -0.515625 C 6.019531 0.00390625 5.394531 0.265625 4.65625 0.265625 Z M 4.65625 -18.5625 C 3.894531 -18.5625 3.25 -18.820312 2.71875 -19.34375 C 2.195312 -19.875 1.9375 -20.523438 1.9375 -21.296875 C 1.9375 -22.054688 2.195312 -22.695312 2.71875 -23.21875 C 3.25 -23.75 3.894531 -24.015625 4.65625 -24.015625 C 5.394531 -24.015625 6.019531 -23.75 6.53125 -23.21875 C 7.039062 -22.695312 7.296875 -22.054688 7.296875 -21.296875 C 7.296875 -20.523438 7.039062 -19.875 6.53125 -19.34375 C 6.019531 -18.820312 5.394531 -18.5625 4.65625 -18.5625 Z M 4.65625 -18.5625 "/></g></g></g><g fill="#d9d9d9" fill-opacity="1"><g transform="translate(122.224081, 376.190773)"><g><path d="M 14.390625 -11.578125 L 14.390625 -18.5625 L 18.046875 -18.5625 L 18.046875 0 L 14.390625 0 L 14.390625 -8.453125 L 6.078125 -8.453125 L 6.078125 0 L 2.40625 0 L 2.40625 -18.5625 L 6.078125 -18.5625 L 6.078125 -11.578125 Z M 14.390625 -11.578125 "/></g></g></g><g fill="#d9d9d9" fill-opacity="1"><g transform="translate(142.695466, 376.190773)"><g><path d="M 14.875 -18.5625 L 14.875 -15.46875 L 9.515625 -15.46875 L 9.515625 0 L 5.859375 0 L 5.859375 -15.46875 L 0.515625 -15.46875 L 0.515625 -18.5625 Z M 14.875 -18.5625 "/></g></g></g><g fill="#d9d9d9" fill-opacity="1"><g transform="translate(158.07756, 376.190773)"><g><path d="M 5.78125 0 L 2.40625 0 L 2.40625 -18.5625 L 7.21875 -18.5625 L 11.90625 -4.90625 L 12.171875 -4.90625 L 16.84375 -18.5625 L 21.53125 -18.5625 L 21.53125 0 L 18.046875 0 L 18.046875 -12.265625 L 17.734375 -12.3125 L 13.4375 0 L 10.390625 0 L 6.09375 -12.3125 L 5.78125 -12.265625 Z M 5.78125 0 "/></g></g></g><g fill="#d9d9d9" fill-opacity="1"><g transform="translate(182.026415, 376.190773)"><g><path d="M 6.078125 -18.5625 L 6.078125 -3.078125 L 14.421875 -3.078125 L 14.421875 0 L 2.40625 0 L 2.40625 -18.5625 Z M 6.078125 -18.5625 "/></g></g></g><g fill="#d9d9d9" fill-opacity="1"><g transform="translate(197.053148, 376.190773)"><g/></g></g><g fill="#d9d9d9" fill-opacity="1"><g transform="translate(203.183141, 376.190773)"><g><path d="M 7.734375 0.265625 C 5.878906 0.265625 4.40625 -0.117188 3.3125 -0.890625 C 2.226562 -1.671875 1.519531 -2.765625 1.1875 -4.171875 L 3.96875 -5.390625 L 4.265625 -5.34375 C 4.535156 -4.519531 4.9375 -3.898438 5.46875 -3.484375 C 6.007812 -3.078125 6.75 -2.875 7.6875 -2.875 C 8.65625 -2.875 9.398438 -3.144531 9.921875 -3.6875 C 10.453125 -4.238281 10.71875 -5.0625 10.71875 -6.15625 C 10.71875 -7.238281 10.457031 -8.054688 9.9375 -8.609375 C 9.414062 -9.171875 8.707031 -9.453125 7.8125 -9.453125 C 7.125 -9.453125 6.546875 -9.300781 6.078125 -9 C 5.617188 -8.707031 5.226562 -8.269531 4.90625 -7.6875 L 1.875 -7.90625 L 2.265625 -18.5625 L 13.3125 -18.5625 L 13.3125 -15.46875 L 5.34375 -15.46875 L 5.171875 -10.734375 L 5.4375 -10.6875 C 5.863281 -11.257812 6.378906 -11.691406 6.984375 -11.984375 C 7.585938 -12.273438 8.3125 -12.421875 9.15625 -12.421875 C 10.207031 -12.421875 11.128906 -12.179688 11.921875 -11.703125 C 12.710938 -11.234375 13.320312 -10.535156 13.75 -9.609375 C 14.1875 -8.691406 14.40625 -7.5625 14.40625 -6.21875 C 14.40625 -4.851562 14.144531 -3.6875 13.625 -2.71875 C 13.101562 -1.75 12.34375 -1.007812 11.34375 -0.5 C 10.351562 0.0078125 9.148438 0.265625 7.734375 0.265625 Z M 7.734375 0.265625 "/></g></g></g><g fill="#d9d9d9" fill-opacity="1"><g transform="translate(371.141734, 376.190773)"><g><path d="M 10.140625 0.265625 C 8.429688 0.265625 6.925781 -0.0859375 5.625 -0.796875 C 4.320312 -1.503906 3.300781 -2.570312 2.5625 -4 C 1.820312 -5.425781 1.453125 -7.1875 1.453125 -9.28125 C 1.453125 -11.375 1.820312 -13.128906 2.5625 -14.546875 C 3.300781 -15.972656 4.320312 -17.039062 5.625 -17.75 C 6.925781 -18.46875 8.429688 -18.828125 10.140625 -18.828125 C 11.929688 -18.828125 13.445312 -18.476562 14.6875 -17.78125 C 15.9375 -17.082031 16.832031 -16.019531 17.375 -14.59375 L 14.6875 -12.953125 L 14.375 -12.96875 C 13.976562 -13.925781 13.4375 -14.613281 12.75 -15.03125 C 12.070312 -15.457031 11.203125 -15.671875 10.140625 -15.671875 C 8.597656 -15.671875 7.394531 -15.160156 6.53125 -14.140625 C 5.675781 -13.117188 5.25 -11.5 5.25 -9.28125 C 5.25 -7.070312 5.675781 -5.457031 6.53125 -4.4375 C 7.394531 -3.414062 8.597656 -2.90625 10.140625 -2.90625 C 12.554688 -2.90625 14.035156 -4.078125 14.578125 -6.421875 L 14.890625 -6.421875 L 17.59375 -5.015625 C 17.082031 -3.253906 16.210938 -1.929688 14.984375 -1.046875 C 13.765625 -0.171875 12.148438 0.265625 10.140625 0.265625 Z M 10.140625 0.265625 "/></g></g></g><g fill="#d9d9d9" fill-opacity="1"><g transform="translate(389.341341, 376.190773)"><g><path d="M 8.234375 0.265625 C 6.941406 0.265625 5.789062 0.109375 4.78125 -0.203125 C 3.78125 -0.523438 2.945312 -0.941406 2.28125 -1.453125 C 1.613281 -1.972656 1.101562 -2.539062 0.75 -3.15625 L 2.765625 -5.625 L 3.078125 -5.625 C 3.640625 -4.789062 4.347656 -4.128906 5.203125 -3.640625 C 6.066406 -3.148438 7.078125 -2.90625 8.234375 -2.90625 C 9.210938 -2.90625 9.953125 -3.113281 10.453125 -3.53125 C 10.953125 -3.945312 11.203125 -4.519531 11.203125 -5.25 C 11.203125 -5.6875 11.117188 -6.050781 10.953125 -6.34375 C 10.796875 -6.644531 10.53125 -6.898438 10.15625 -7.109375 C 9.78125 -7.316406 9.273438 -7.5 8.640625 -7.65625 L 6.265625 -8.203125 C 4.597656 -8.578125 3.351562 -9.207031 2.53125 -10.09375 C 1.71875 -10.976562 1.3125 -12.128906 1.3125 -13.546875 C 1.3125 -14.597656 1.570312 -15.519531 2.09375 -16.3125 C 2.613281 -17.101562 3.375 -17.71875 4.375 -18.15625 C 5.382812 -18.601562 6.585938 -18.828125 7.984375 -18.828125 C 9.410156 -18.828125 10.632812 -18.640625 11.65625 -18.265625 C 12.675781 -17.890625 13.539062 -17.3125 14.25 -16.53125 L 12.421875 -14.046875 L 12.109375 -14.046875 C 11.585938 -14.585938 10.988281 -14.992188 10.3125 -15.265625 C 9.632812 -15.546875 8.859375 -15.6875 7.984375 -15.6875 C 6.972656 -15.6875 6.207031 -15.507812 5.6875 -15.15625 C 5.164062 -14.800781 4.90625 -14.3125 4.90625 -13.6875 C 4.90625 -13.101562 5.085938 -12.632812 5.453125 -12.28125 C 5.816406 -11.9375 6.453125 -11.671875 7.359375 -11.484375 L 9.796875 -10.96875 C 11.597656 -10.582031 12.90625 -9.9375 13.71875 -9.03125 C 14.53125 -8.125 14.9375 -6.9375 14.9375 -5.46875 C 14.9375 -4.3125 14.6875 -3.300781 14.1875 -2.4375 C 13.6875 -1.582031 12.929688 -0.914062 11.921875 -0.4375 C 10.921875 0.03125 9.691406 0.265625 8.234375 0.265625 Z M 8.234375 0.265625 "/></g></g></g><g fill="#d9d9d9" fill-opacity="1"><g transform="translate(405.281861, 376.190773)"><g><path d="M 8.234375 0.265625 C 6.941406 0.265625 5.789062 0.109375 4.78125 -0.203125 C 3.78125 -0.523438 2.945312 -0.941406 2.28125 -1.453125 C 1.613281 -1.972656 1.101562 -2.539062 0.75 -3.15625 L 2.765625 -5.625 L 3.078125 -5.625 C 3.640625 -4.789062 4.347656 -4.128906 5.203125 -3.640625 C 6.066406 -3.148438 7.078125 -2.90625 8.234375 -2.90625 C 9.210938 -2.90625 9.953125 -3.113281 10.453125 -3.53125 C 10.953125 -3.945312 11.203125 -4.519531 11.203125 -5.25 C 11.203125 -5.6875 11.117188 -6.050781 10.953125 -6.34375 C 10.796875 -6.644531 10.53125 -6.898438 10.15625 -7.109375 C 9.78125 -7.316406 9.273438 -7.5 8.640625 -7.65625 L 6.265625 -8.203125 C 4.597656 -8.578125 3.351562 -9.207031 2.53125 -10.09375 C 1.71875 -10.976562 1.3125 -12.128906 1.3125 -13.546875 C 1.3125 -14.597656 1.570312 -15.519531 2.09375 -16.3125 C 2.613281 -17.101562 3.375 -17.71875 4.375 -18.15625 C 5.382812 -18.601562 6.585938 -18.828125 7.984375 -18.828125 C 9.410156 -18.828125 10.632812 -18.640625 11.65625 -18.265625 C 12.675781 -17.890625 13.539062 -17.3125 14.25 -16.53125 L 12.421875 -14.046875 L 12.109375 -14.046875 C 11.585938 -14.585938 10.988281 -14.992188 10.3125 -15.265625 C 9.632812 -15.546875 8.859375 -15.6875 7.984375 -15.6875 C 6.972656 -15.6875 6.207031 -15.507812 5.6875 -15.15625 C 5.164062 -14.800781 4.90625 -14.3125 4.90625 -13.6875 C 4.90625 -13.101562 5.085938 -12.632812 5.453125 -12.28125 C 5.816406 -11.9375 6.453125 -11.671875 7.359375 -11.484375 L 9.796875 -10.96875 C 11.597656 -10.582031 12.90625 -9.9375 13.71875 -9.03125 C 14.53125 -8.125 14.9375 -6.9375 14.9375 -5.46875 C 14.9375 -4.3125 14.6875 -3.300781 14.1875 -2.4375 C 13.6875 -1.582031 12.929688 -0.914062 11.921875 -0.4375 C 10.921875 0.03125 9.691406 0.265625 8.234375 0.265625 Z M 8.234375 0.265625 "/></g></g></g><g fill="#d9d9d9" fill-opacity="1"><g transform="translate(421.222382, 376.190773)"><g/></g></g><g fill="#d9d9d9" fill-opacity="1"><g transform="translate(427.352375, 376.190773)"><g><path d="M 7.5625 0.265625 C 5.570312 0.265625 3.992188 -0.15625 2.828125 -1 C 1.660156 -1.84375 0.921875 -3.035156 0.609375 -4.578125 L 3.390625 -5.859375 L 3.6875 -5.8125 C 4 -4.789062 4.441406 -4.046875 5.015625 -3.578125 C 5.597656 -3.109375 6.40625 -2.875 7.4375 -2.875 C 8.4375 -2.875 9.195312 -3.101562 9.71875 -3.5625 C 10.25 -4.03125 10.515625 -4.707031 10.515625 -5.59375 C 10.515625 -6.46875 10.253906 -7.132812 9.734375 -7.59375 C 9.210938 -8.0625 8.445312 -8.296875 7.4375 -8.296875 L 4.640625 -8.296875 L 4.640625 -11.15625 L 7.078125 -11.15625 C 7.910156 -11.15625 8.570312 -11.363281 9.0625 -11.78125 C 9.550781 -12.195312 9.796875 -12.789062 9.796875 -13.5625 C 9.796875 -14.320312 9.566406 -14.894531 9.109375 -15.28125 C 8.648438 -15.664062 8.015625 -15.859375 7.203125 -15.859375 C 6.367188 -15.859375 5.628906 -15.660156 4.984375 -15.265625 C 4.347656 -14.878906 3.835938 -14.359375 3.453125 -13.703125 L 3.15625 -13.640625 L 1.234375 -15.890625 C 1.878906 -16.773438 2.710938 -17.484375 3.734375 -18.015625 C 4.765625 -18.554688 5.988281 -18.828125 7.40625 -18.828125 C 9.351562 -18.828125 10.835938 -18.421875 11.859375 -17.609375 C 12.878906 -16.796875 13.390625 -15.65625 13.390625 -14.1875 C 13.390625 -13.289062 13.179688 -12.523438 12.765625 -11.890625 C 12.359375 -11.265625 11.765625 -10.722656 10.984375 -10.265625 L 10.984375 -10 C 13.117188 -9.25 14.1875 -7.726562 14.1875 -5.4375 C 14.1875 -4.28125 13.941406 -3.273438 13.453125 -2.421875 C 12.960938 -1.566406 12.222656 -0.90625 11.234375 -0.4375 C 10.242188 0.03125 9.019531 0.265625 7.5625 0.265625 Z M 7.5625 0.265625 "/></g></g></g><g fill="#d9d9d9" fill-opacity="1"><g transform="translate(571.420745, 376.190773)"><g><path d="M 6.5 0.265625 C 4.925781 0.265625 3.617188 -0.03125 2.578125 -0.625 C 1.535156 -1.226562 0.78125 -2.03125 0.3125 -3.03125 L 2.375 -5.546875 L 2.6875 -5.546875 C 3.03125 -4.734375 3.507812 -4.09375 4.125 -3.625 C 4.75 -3.15625 5.472656 -2.921875 6.296875 -2.921875 C 7.222656 -2.921875 7.910156 -3.1875 8.359375 -3.71875 C 8.804688 -4.257812 9.03125 -5.132812 9.03125 -6.34375 L 9.03125 -18.5625 L 12.6875 -18.5625 L 12.6875 -6.28125 C 12.6875 -4.039062 12.175781 -2.390625 11.15625 -1.328125 C 10.132812 -0.265625 8.582031 0.265625 6.5 0.265625 Z M 6.5 0.265625 "/></g></g></g><g fill="#d9d9d9" fill-opacity="1"><g transform="translate(586.396712, 376.190773)"><g><path d="M 5.453125 0.265625 C 4.554688 0.265625 3.78125 0.101562 3.125 -0.21875 C 2.46875 -0.550781 1.957031 -1.035156 1.59375 -1.671875 C 1.238281 -2.316406 1.0625 -3.085938 1.0625 -3.984375 C 1.0625 -4.816406 1.238281 -5.515625 1.59375 -6.078125 C 1.957031 -6.640625 2.507812 -7.097656 3.25 -7.453125 C 4 -7.816406 4.972656 -8.097656 6.171875 -8.296875 C 7.003906 -8.429688 7.640625 -8.578125 8.078125 -8.734375 C 8.515625 -8.890625 8.804688 -9.066406 8.953125 -9.265625 C 9.109375 -9.472656 9.1875 -9.738281 9.1875 -10.0625 C 9.1875 -10.507812 9.03125 -10.847656 8.71875 -11.078125 C 8.40625 -11.316406 7.882812 -11.4375 7.15625 -11.4375 C 6.382812 -11.4375 5.644531 -11.257812 4.9375 -10.90625 C 4.238281 -10.5625 3.628906 -10.109375 3.109375 -9.546875 L 2.859375 -9.546875 L 1.390625 -11.765625 C 2.097656 -12.554688 2.960938 -13.171875 3.984375 -13.609375 C 5.003906 -14.046875 6.125 -14.265625 7.34375 -14.265625 C 9.195312 -14.265625 10.535156 -13.867188 11.359375 -13.078125 C 12.191406 -12.296875 12.609375 -11.179688 12.609375 -9.734375 L 12.609375 -3.65625 C 12.609375 -3.03125 12.882812 -2.71875 13.4375 -2.71875 C 13.644531 -2.71875 13.847656 -2.753906 14.046875 -2.828125 L 14.234375 -2.78125 L 14.484375 -0.328125 C 14.285156 -0.203125 14.015625 -0.0976562 13.671875 -0.015625 C 13.328125 0.0664062 12.945312 0.109375 12.53125 0.109375 C 11.695312 0.109375 11.039062 -0.0507812 10.5625 -0.375 C 10.09375 -0.695312 9.757812 -1.203125 9.5625 -1.890625 L 9.296875 -1.921875 C 8.609375 -0.460938 7.328125 0.265625 5.453125 0.265625 Z M 6.578125 -2.359375 C 7.390625 -2.359375 8.035156 -2.628906 8.515625 -3.171875 C 9.003906 -3.722656 9.25 -4.484375 9.25 -5.453125 L 9.25 -6.875 L 9.015625 -6.9375 C 8.804688 -6.757812 8.53125 -6.613281 8.1875 -6.5 C 7.84375 -6.382812 7.347656 -6.273438 6.703125 -6.171875 C 5.941406 -6.046875 5.394531 -5.828125 5.0625 -5.515625 C 4.726562 -5.203125 4.5625 -4.765625 4.5625 -4.203125 C 4.5625 -3.597656 4.738281 -3.140625 5.09375 -2.828125 C 5.445312 -2.515625 5.941406 -2.359375 6.578125 -2.359375 Z M 6.578125 -2.359375 "/></g></g></g><g fill="#d9d9d9" fill-opacity="1"><g transform="translate(601.156923, 376.190773)"><g><path d="M 9.640625 0 L 5.453125 0 L 0.265625 -14 L 3.953125 -14 L 7.421875 -4.03125 L 7.71875 -4.03125 L 11.203125 -14 L 14.796875 -14 Z M 9.640625 0 "/></g></g></g><g fill="#d9d9d9" fill-opacity="1"><g transform="translate(616.209039, 376.190773)"><g><path d="M 5.453125 0.265625 C 4.554688 0.265625 3.78125 0.101562 3.125 -0.21875 C 2.46875 -0.550781 1.957031 -1.035156 1.59375 -1.671875 C 1.238281 -2.316406 1.0625 -3.085938 1.0625 -3.984375 C 1.0625 -4.816406 1.238281 -5.515625 1.59375 -6.078125 C 1.957031 -6.640625 2.507812 -7.097656 3.25 -7.453125 C 4 -7.816406 4.972656 -8.097656 6.171875 -8.296875 C 7.003906 -8.429688 7.640625 -8.578125 8.078125 -8.734375 C 8.515625 -8.890625 8.804688 -9.066406 8.953125 -9.265625 C 9.109375 -9.472656 9.1875 -9.738281 9.1875 -10.0625 C 9.1875 -10.507812 9.03125 -10.847656 8.71875 -11.078125 C 8.40625 -11.316406 7.882812 -11.4375 7.15625 -11.4375 C 6.382812 -11.4375 5.644531 -11.257812 4.9375 -10.90625 C 4.238281 -10.5625 3.628906 -10.109375 3.109375 -9.546875 L 2.859375 -9.546875 L 1.390625 -11.765625 C 2.097656 -12.554688 2.960938 -13.171875 3.984375 -13.609375 C 5.003906 -14.046875 6.125 -14.265625 7.34375 -14.265625 C 9.195312 -14.265625 10.535156 -13.867188 11.359375 -13.078125 C 12.191406 -12.296875 12.609375 -11.179688 12.609375 -9.734375 L 12.609375 -3.65625 C 12.609375 -3.03125 12.882812 -2.71875 13.4375 -2.71875 C 13.644531 -2.71875 13.847656 -2.753906 14.046875 -2.828125 L 14.234375 -2.78125 L 14.484375 -0.328125 C 14.285156 -0.203125 14.015625 -0.0976562 13.671875 -0.015625 C 13.328125 0.0664062 12.945312 0.109375 12.53125 0.109375 C 11.695312 0.109375 11.039062 -0.0507812 10.5625 -0.375 C 10.09375 -0.695312 9.757812 -1.203125 9.5625 -1.890625 L 9.296875 -1.921875 C 8.609375 -0.460938 7.328125 0.265625 5.453125 0.265625 Z M 6.578125 -2.359375 C 7.390625 -2.359375 8.035156 -2.628906 8.515625 -3.171875 C 9.003906 -3.722656 9.25 -4.484375 9.25 -5.453125 L 9.25 -6.875 L 9.015625 -6.9375 C 8.804688 -6.757812 8.53125 -6.613281 8.1875 -6.5 C 7.84375 -6.382812 7.347656 -6.273438 6.703125 -6.171875 C 5.941406 -6.046875 5.394531 -5.828125 5.0625 -5.515625 C 4.726562 -5.203125 4.5625 -4.765625 4.5625 -4.203125 C 4.5625 -3.597656 4.738281 -3.140625 5.09375 -2.828125 C 5.445312 -2.515625 5.941406 -2.359375 6.578125 -2.359375 Z M 6.578125 -2.359375 "/></g></g></g><g fill="#d9d9d9" fill-opacity="1"><g transform="translate(630.969251, 376.190773)"><g><path d="M 8.234375 0.265625 C 6.941406 0.265625 5.789062 0.109375 4.78125 -0.203125 C 3.78125 -0.523438 2.945312 -0.941406 2.28125 -1.453125 C 1.613281 -1.972656 1.101562 -2.539062 0.75 -3.15625 L 2.765625 -5.625 L 3.078125 -5.625 C 3.640625 -4.789062 4.347656 -4.128906 5.203125 -3.640625 C 6.066406 -3.148438 7.078125 -2.90625 8.234375 -2.90625 C 9.210938 -2.90625 9.953125 -3.113281 10.453125 -3.53125 C 10.953125 -3.945312 11.203125 -4.519531 11.203125 -5.25 C 11.203125 -5.6875 11.117188 -6.050781 10.953125 -6.34375 C 10.796875 -6.644531 10.53125 -6.898438 10.15625 -7.109375 C 9.78125 -7.316406 9.273438 -7.5 8.640625 -7.65625 L 6.265625 -8.203125 C 4.597656 -8.578125 3.351562 -9.207031 2.53125 -10.09375 C 1.71875 -10.976562 1.3125 -12.128906 1.3125 -13.546875 C 1.3125 -14.597656 1.570312 -15.519531 2.09375 -16.3125 C 2.613281 -17.101562 3.375 -17.71875 4.375 -18.15625 C 5.382812 -18.601562 6.585938 -18.828125 7.984375 -18.828125 C 9.410156 -18.828125 10.632812 -18.640625 11.65625 -18.265625 C 12.675781 -17.890625 13.539062 -17.3125 14.25 -16.53125 L 12.421875 -14.046875 L 12.109375 -14.046875 C 11.585938 -14.585938 10.988281 -14.992188 10.3125 -15.265625 C 9.632812 -15.546875 8.859375 -15.6875 7.984375 -15.6875 C 6.972656 -15.6875 6.207031 -15.507812 5.6875 -15.15625 C 5.164062 -14.800781 4.90625 -14.3125 4.90625 -13.6875 C 4.90625 -13.101562 5.085938 -12.632812 5.453125 -12.28125 C 5.816406 -11.9375 6.453125 -11.671875 7.359375 -11.484375 L 9.796875 -10.96875 C 11.597656 -10.582031 12.90625 -9.9375 13.71875 -9.03125 C 14.53125 -8.125 14.9375 -6.9375 14.9375 -5.46875 C 14.9375 -4.3125 14.6875 -3.300781 14.1875 -2.4375 C 13.6875 -1.582031 12.929688 -0.914062 11.921875 -0.4375 C 10.921875 0.03125 9.691406 0.265625 8.234375 0.265625 Z M 8.234375 0.265625 "/></g></g></g><g fill="#d9d9d9" fill-opacity="1"><g transform="translate(646.909771, 376.190773)"><g><path d="M 8.15625 0.265625 C 6.800781 0.265625 5.601562 -0.015625 4.5625 -0.578125 C 3.53125 -1.140625 2.71875 -1.96875 2.125 -3.0625 C 1.539062 -4.15625 1.25 -5.46875 1.25 -7 C 1.25 -8.539062 1.539062 -9.851562 2.125 -10.9375 C 2.71875 -12.03125 3.53125 -12.859375 4.5625 -13.421875 C 5.59375 -13.984375 6.769531 -14.265625 8.09375 -14.265625 C 11.050781 -14.265625 12.945312 -13.195312 13.78125 -11.0625 L 11.359375 -9.328125 L 11.09375 -9.328125 C 10.8125 -9.992188 10.4375 -10.484375 9.96875 -10.796875 C 9.507812 -11.117188 8.882812 -11.28125 8.09375 -11.28125 C 7.082031 -11.28125 6.289062 -10.925781 5.71875 -10.21875 C 5.15625 -9.519531 4.875 -8.445312 4.875 -7 C 4.875 -5.5625 5.160156 -4.488281 5.734375 -3.78125 C 6.316406 -3.070312 7.125 -2.71875 8.15625 -2.71875 C 8.925781 -2.71875 9.570312 -2.921875 10.09375 -3.328125 C 10.625 -3.742188 11.003906 -4.335938 11.234375 -5.109375 L 11.5 -5.125 L 14 -3.765625 C 13.644531 -2.578125 12.988281 -1.609375 12.03125 -0.859375 C 11.070312 -0.109375 9.78125 0.265625 8.15625 0.265625 Z M 8.15625 0.265625 "/></g></g></g><g fill="#d9d9d9" fill-opacity="1"><g transform="translate(661.340003, 376.190773)"><g><path d="M 2.015625 0 L 2.015625 -14 L 5.4375 -14 L 5.4375 -11.921875 L 5.703125 -11.875 C 6.035156 -12.644531 6.476562 -13.210938 7.03125 -13.578125 C 7.582031 -13.941406 8.253906 -14.125 9.046875 -14.125 C 9.835938 -14.125 10.441406 -13.988281 10.859375 -13.71875 L 10.265625 -10.6875 L 9.984375 -10.640625 C 9.765625 -10.734375 9.546875 -10.800781 9.328125 -10.84375 C 9.117188 -10.882812 8.863281 -10.90625 8.5625 -10.90625 C 7.570312 -10.90625 6.816406 -10.5625 6.296875 -9.875 C 5.785156 -9.1875 5.53125 -8.078125 5.53125 -6.546875 L 5.53125 0 Z M 2.015625 0 "/></g></g></g><g fill="#d9d9d9" fill-opacity="1"><g transform="translate(672.318149, 376.190773)"><g><path d="M 3.765625 -15.671875 C 3.128906 -15.671875 2.613281 -15.863281 2.21875 -16.25 C 1.820312 -16.632812 1.625 -17.132812 1.625 -17.75 C 1.625 -18.351562 1.820312 -18.847656 2.21875 -19.234375 C 2.613281 -19.617188 3.128906 -19.8125 3.765625 -19.8125 C 4.191406 -19.8125 4.566406 -19.71875 4.890625 -19.53125 C 5.222656 -19.351562 5.476562 -19.109375 5.65625 -18.796875 C 5.84375 -18.492188 5.9375 -18.144531 5.9375 -17.75 C 5.9375 -17.351562 5.84375 -17 5.65625 -16.6875 C 5.476562 -16.375 5.222656 -16.125 4.890625 -15.9375 C 4.566406 -15.757812 4.191406 -15.671875 3.765625 -15.671875 Z M 2.015625 0 L 2.015625 -14 L 5.53125 -14 L 5.53125 0 Z M 2.015625 0 "/></g></g></g><g fill="#d9d9d9" fill-opacity="1"><g transform="translate(679.856898, 376.190773)"><g><path d="M 2.015625 5.671875 L 2.015625 -14 L 5.53125 -14 L 5.53125 -12.171875 L 5.796875 -12.125 C 6.210938 -12.832031 6.765625 -13.363281 7.453125 -13.71875 C 8.148438 -14.082031 8.96875 -14.265625 9.90625 -14.265625 C 11.03125 -14.265625 12.015625 -14 12.859375 -13.46875 C 13.703125 -12.9375 14.359375 -12.125 14.828125 -11.03125 C 15.296875 -9.945312 15.53125 -8.601562 15.53125 -7 C 15.53125 -5.394531 15.28125 -4.050781 14.78125 -2.96875 C 14.289062 -1.882812 13.601562 -1.070312 12.71875 -0.53125 C 11.84375 0 10.828125 0.265625 9.671875 0.265625 C 8.796875 0.265625 8.039062 0.117188 7.40625 -0.171875 C 6.78125 -0.460938 6.242188 -0.914062 5.796875 -1.53125 L 5.53125 -1.484375 L 5.53125 5.671875 Z M 8.703125 -2.71875 C 9.742188 -2.71875 10.535156 -3.0625 11.078125 -3.75 C 11.617188 -4.4375 11.890625 -5.519531 11.890625 -7 C 11.890625 -8.476562 11.617188 -9.5625 11.078125 -10.25 C 10.535156 -10.9375 9.742188 -11.28125 8.703125 -11.28125 C 7.710938 -11.28125 6.929688 -10.925781 6.359375 -10.21875 C 5.785156 -9.507812 5.5 -8.4375 5.5 -7 C 5.5 -5.5625 5.785156 -4.488281 6.359375 -3.78125 C 6.929688 -3.070312 7.710938 -2.71875 8.703125 -2.71875 Z M 8.703125 -2.71875 "/></g></g></g><g fill="#d9d9d9" fill-opacity="1"><g transform="translate(696.622366, 376.190773)"><g><path d="M 9.65625 -3.34375 L 10.578125 -0.734375 C 10.191406 -0.421875 9.710938 -0.175781 9.140625 0 C 8.566406 0.175781 7.914062 0.265625 7.1875 0.265625 C 5.664062 0.265625 4.507812 -0.144531 3.71875 -0.96875 C 2.9375 -1.789062 2.546875 -2.992188 2.546875 -4.578125 L 2.546875 -11.21875 L 0.421875 -11.21875 L 0.421875 -14.015625 L 2.546875 -14.015625 L 2.546875 -16.75 L 6.0625 -17.3125 L 6.0625 -14.015625 L 10.046875 -14.015625 L 10.046875 -11.21875 L 6.0625 -11.21875 L 6.0625 -4.828125 C 6.0625 -4.128906 6.207031 -3.617188 6.5 -3.296875 C 6.789062 -2.984375 7.207031 -2.828125 7.75 -2.828125 C 8.382812 -2.828125 8.929688 -3 9.390625 -3.34375 Z M 9.65625 -3.34375 "/></g></g></g><g fill="#d9d9d9" fill-opacity="1"><g transform="translate(108.489707, 722.600024)"><g><path d="M 5.78125 0 L 2.40625 0 L 2.40625 -18.5625 L 7.21875 -18.5625 L 11.90625 -4.90625 L 12.171875 -4.90625 L 16.84375 -18.5625 L 21.53125 -18.5625 L 21.53125 0 L 18.046875 0 L 18.046875 -12.265625 L 17.734375 -12.3125 L 13.4375 0 L 10.390625 0 L 6.09375 -12.3125 L 5.78125 -12.265625 Z M 5.78125 0 "/></g></g></g><g fill="#d9d9d9" fill-opacity="1"><g transform="translate(132.438562, 722.600024)"><g><path d="M 8.140625 0.265625 C 6.765625 0.265625 5.554688 -0.015625 4.515625 -0.578125 C 3.484375 -1.140625 2.679688 -1.960938 2.109375 -3.046875 C 1.535156 -4.140625 1.25 -5.457031 1.25 -7 C 1.25 -8.539062 1.535156 -9.851562 2.109375 -10.9375 C 2.679688 -12.03125 3.484375 -12.859375 4.515625 -13.421875 C 5.554688 -13.984375 6.765625 -14.265625 8.140625 -14.265625 C 9.503906 -14.265625 10.707031 -13.984375 11.75 -13.421875 C 12.789062 -12.859375 13.597656 -12.03125 14.171875 -10.9375 C 14.742188 -9.851562 15.03125 -8.539062 15.03125 -7 C 15.03125 -5.457031 14.742188 -4.140625 14.171875 -3.046875 C 13.597656 -1.960938 12.789062 -1.140625 11.75 -0.578125 C 10.707031 -0.015625 9.503906 0.265625 8.140625 0.265625 Z M 8.140625 -2.71875 C 10.316406 -2.71875 11.40625 -4.144531 11.40625 -7 C 11.40625 -8.476562 11.125 -9.5625 10.5625 -10.25 C 10 -10.9375 9.191406 -11.28125 8.140625 -11.28125 C 5.960938 -11.28125 4.875 -9.851562 4.875 -7 C 4.875 -4.144531 5.960938 -2.71875 8.140625 -2.71875 Z M 8.140625 -2.71875 "/></g></g></g><g fill="#d9d9d9" fill-opacity="1"><g transform="translate(148.709061, 722.600024)"><g><path d="M 2.015625 0 L 2.015625 -14 L 5.390625 -14 L 5.390625 -11.953125 L 5.65625 -11.890625 C 6.53125 -13.472656 7.945312 -14.265625 9.90625 -14.265625 C 11.519531 -14.265625 12.703125 -13.820312 13.453125 -12.9375 C 14.210938 -12.0625 14.59375 -10.785156 14.59375 -9.109375 L 14.59375 0 L 11.078125 0 L 11.078125 -8.671875 C 11.078125 -9.597656 10.890625 -10.265625 10.515625 -10.671875 C 10.148438 -11.085938 9.554688 -11.296875 8.734375 -11.296875 C 7.722656 -11.296875 6.9375 -10.96875 6.375 -10.3125 C 5.8125 -9.664062 5.53125 -8.644531 5.53125 -7.25 L 5.53125 0 Z M 2.015625 0 "/></g></g></g><g fill="#d9d9d9" fill-opacity="1"><g transform="translate(165.106475, 722.600024)"><g><path d="M 7.265625 5.9375 C 4.953125 5.9375 3.242188 5.597656 2.140625 4.921875 C 1.046875 4.242188 0.5 3.300781 0.5 2.09375 C 0.5 1.351562 0.734375 0.75 1.203125 0.28125 C 1.671875 -0.1875 2.34375 -0.5 3.21875 -0.65625 L 3.21875 -0.921875 C 2.75 -1.210938 2.410156 -1.53125 2.203125 -1.875 C 1.992188 -2.226562 1.890625 -2.640625 1.890625 -3.109375 C 1.890625 -4.234375 2.625 -4.992188 4.09375 -5.390625 L 4.09375 -5.65625 C 3.332031 -6.082031 2.757812 -6.613281 2.375 -7.25 C 2 -7.894531 1.8125 -8.671875 1.8125 -9.578125 C 1.8125 -10.503906 2.023438 -11.320312 2.453125 -12.03125 C 2.878906 -12.738281 3.503906 -13.285156 4.328125 -13.671875 C 5.160156 -14.066406 6.148438 -14.265625 7.296875 -14.265625 C 8.460938 -14.265625 9.394531 -14.0625 10.09375 -13.65625 C 10.519531 -14.28125 10.769531 -15.003906 10.84375 -15.828125 L 11.109375 -16 L 13.640625 -15.375 C 13.554688 -14.707031 13.359375 -14.144531 13.046875 -13.6875 C 12.734375 -13.238281 12.25 -12.835938 11.59375 -12.484375 L 11.59375 -12.203125 C 12.375 -11.503906 12.765625 -10.535156 12.765625 -9.296875 C 12.765625 -8.429688 12.550781 -7.65625 12.125 -6.96875 C 11.695312 -6.28125 11.066406 -5.738281 10.234375 -5.34375 C 9.410156 -4.945312 8.429688 -4.75 7.296875 -4.75 L 6.765625 -4.765625 C 6.429688 -4.773438 6.195312 -4.78125 6.0625 -4.78125 C 5.738281 -4.78125 5.484375 -4.691406 5.296875 -4.515625 C 5.117188 -4.347656 5.03125 -4.128906 5.03125 -3.859375 C 5.03125 -3.566406 5.144531 -3.335938 5.375 -3.171875 C 5.613281 -3.003906 5.960938 -2.910156 6.421875 -2.890625 L 9.5625 -2.78125 C 12.65625 -2.6875 14.203125 -1.351562 14.203125 1.21875 C 14.203125 2.125 13.972656 2.929688 13.515625 3.640625 C 13.054688 4.347656 12.304688 4.90625 11.265625 5.3125 C 10.234375 5.726562 8.898438 5.9375 7.265625 5.9375 Z M 7.296875 -7.21875 C 7.972656 -7.21875 8.5 -7.414062 8.875 -7.8125 C 9.257812 -8.207031 9.453125 -8.773438 9.453125 -9.515625 C 9.453125 -10.242188 9.257812 -10.804688 8.875 -11.203125 C 8.5 -11.597656 7.972656 -11.796875 7.296875 -11.796875 C 6.609375 -11.796875 6.078125 -11.597656 5.703125 -11.203125 C 5.335938 -10.804688 5.15625 -10.242188 5.15625 -9.515625 C 5.15625 -8.765625 5.335938 -8.191406 5.703125 -7.796875 C 6.078125 -7.410156 6.609375 -7.21875 7.296875 -7.21875 Z M 7.265625 3.390625 C 8.460938 3.390625 9.332031 3.21875 9.875 2.875 C 10.425781 2.539062 10.703125 2.101562 10.703125 1.5625 C 10.703125 1.125 10.5625 0.800781 10.28125 0.59375 C 10 0.382812 9.554688 0.269531 8.953125 0.25 L 6.1875 0.125 C 6.09375 0.125 6.003906 0.117188 5.921875 0.109375 C 5.835938 0.109375 5.757812 0.109375 5.6875 0.109375 C 5.09375 0.109375 4.640625 0.234375 4.328125 0.484375 C 4.023438 0.734375 3.875 1.082031 3.875 1.53125 C 3.875 2.125 4.15625 2.582031 4.71875 2.90625 C 5.289062 3.226562 6.140625 3.390625 7.265625 3.390625 Z M 7.265625 3.390625 "/></g></g></g><g fill="#d9d9d9" fill-opacity="1"><g transform="translate(179.663622, 722.600024)"><g><path d="M 8.140625 0.265625 C 6.765625 0.265625 5.554688 -0.015625 4.515625 -0.578125 C 3.484375 -1.140625 2.679688 -1.960938 2.109375 -3.046875 C 1.535156 -4.140625 1.25 -5.457031 1.25 -7 C 1.25 -8.539062 1.535156 -9.851562 2.109375 -10.9375 C 2.679688 -12.03125 3.484375 -12.859375 4.515625 -13.421875 C 5.554688 -13.984375 6.765625 -14.265625 8.140625 -14.265625 C 9.503906 -14.265625 10.707031 -13.984375 11.75 -13.421875 C 12.789062 -12.859375 13.597656 -12.03125 14.171875 -10.9375 C 14.742188 -9.851562 15.03125 -8.539062 15.03125 -7 C 15.03125 -5.457031 14.742188 -4.140625 14.171875 -3.046875 C 13.597656 -1.960938 12.789062 -1.140625 11.75 -0.578125 C 10.707031 -0.015625 9.503906 0.265625 8.140625 0.265625 Z M 8.140625 -2.71875 C 10.316406 -2.71875 11.40625 -4.144531 11.40625 -7 C 11.40625 -8.476562 11.125 -9.5625 10.5625 -10.25 C 10 -10.9375 9.191406 -11.28125 8.140625 -11.28125 C 5.960938 -11.28125 4.875 -9.851562 4.875 -7 C 4.875 -4.144531 5.960938 -2.71875 8.140625 -2.71875 Z M 8.140625 -2.71875 "/></g></g></g><g fill="#d9d9d9" fill-opacity="1"><g transform="translate(195.934122, 722.600024)"><g><path d="M 9.09375 -18.5625 C 12.101562 -18.5625 14.398438 -17.78125 15.984375 -16.21875 C 17.578125 -14.664062 18.375 -12.351562 18.375 -9.28125 C 18.375 -6.21875 17.578125 -3.90625 15.984375 -2.34375 C 14.398438 -0.78125 12.101562 0 9.09375 0 L 2.40625 0 L 2.40625 -18.5625 Z M 8.875 -3.078125 C 10.789062 -3.078125 12.222656 -3.566406 13.171875 -4.546875 C 14.117188 -5.523438 14.59375 -7.101562 14.59375 -9.28125 C 14.59375 -11.457031 14.117188 -13.03125 13.171875 -14 C 12.222656 -14.976562 10.789062 -15.46875 8.875 -15.46875 L 6.078125 -15.46875 L 6.078125 -3.078125 Z M 8.875 -3.078125 "/></g></g></g><g fill="#d9d9d9" fill-opacity="1"><g transform="translate(215.770931, 722.600024)"><g><path d="M 9.78125 0.265625 C 8 0.265625 6.671875 -0.398438 5.796875 -1.734375 L 5.53125 -1.6875 L 5.53125 0 L 2.015625 0 L 2.015625 -19.625 L 5.53125 -19.625 L 5.53125 -12.359375 L 5.796875 -12.296875 C 6.285156 -12.972656 6.859375 -13.46875 7.515625 -13.78125 C 8.171875 -14.101562 8.953125 -14.265625 9.859375 -14.265625 C 10.992188 -14.265625 11.984375 -14 12.828125 -13.46875 C 13.679688 -12.9375 14.34375 -12.125 14.8125 -11.03125 C 15.289062 -9.945312 15.53125 -8.601562 15.53125 -7 C 15.53125 -5.40625 15.28125 -4.0625 14.78125 -2.96875 C 14.289062 -1.882812 13.613281 -1.070312 12.75 -0.53125 C 11.894531 0 10.90625 0.265625 9.78125 0.265625 Z M 8.71875 -2.71875 C 9.75 -2.71875 10.535156 -3.0625 11.078125 -3.75 C 11.617188 -4.4375 11.890625 -5.519531 11.890625 -7 C 11.890625 -8.476562 11.617188 -9.5625 11.078125 -10.25 C 10.535156 -10.9375 9.75 -11.28125 8.71875 -11.28125 C 7.726562 -11.28125 6.941406 -10.925781 6.359375 -10.21875 C 5.785156 -9.507812 5.5 -8.4375 5.5 -7 C 5.5 -5.5625 5.785156 -4.488281 6.359375 -3.78125 C 6.941406 -3.070312 7.726562 -2.71875 8.71875 -2.71875 Z M 8.71875 -2.71875 "/></g></g></g><g fill="#d9d9d9" fill-opacity="1"><g transform="translate(345.660044, 722.600024)"><g><path d="M 5.96875 0 L 2.40625 0 L 2.40625 -18.5625 L 6.609375 -18.5625 L 14.0625 -6.609375 L 14.390625 -6.65625 L 14.390625 -18.5625 L 17.921875 -18.5625 L 17.921875 0 L 14.171875 0 L 6.28125 -12.765625 L 5.96875 -12.71875 Z M 5.96875 0 "/></g></g></g><g fill="#d9d9d9" fill-opacity="1"><g transform="translate(366.004514, 722.600024)"><g><path d="M 8.140625 0.265625 C 6.765625 0.265625 5.554688 -0.015625 4.515625 -0.578125 C 3.484375 -1.140625 2.679688 -1.960938 2.109375 -3.046875 C 1.535156 -4.140625 1.25 -5.457031 1.25 -7 C 1.25 -8.539062 1.535156 -9.851562 2.109375 -10.9375 C 2.679688 -12.03125 3.484375 -12.859375 4.515625 -13.421875 C 5.554688 -13.984375 6.765625 -14.265625 8.140625 -14.265625 C 9.503906 -14.265625 10.707031 -13.984375 11.75 -13.421875 C 12.789062 -12.859375 13.597656 -12.03125 14.171875 -10.9375 C 14.742188 -9.851562 15.03125 -8.539062 15.03125 -7 C 15.03125 -5.457031 14.742188 -4.140625 14.171875 -3.046875 C 13.597656 -1.960938 12.789062 -1.140625 11.75 -0.578125 C 10.707031 -0.015625 9.503906 0.265625 8.140625 0.265625 Z M 8.140625 -2.71875 C 10.316406 -2.71875 11.40625 -4.144531 11.40625 -7 C 11.40625 -8.476562 11.125 -9.5625 10.5625 -10.25 C 10 -10.9375 9.191406 -11.28125 8.140625 -11.28125 C 5.960938 -11.28125 4.875 -9.851562 4.875 -7 C 4.875 -4.144531 5.960938 -2.71875 8.140625 -2.71875 Z M 8.140625 -2.71875 "/></g></g></g><g fill="#d9d9d9" fill-opacity="1"><g transform="translate(382.275013, 722.600024)"><g><path d="M 6.921875 0.265625 C 5.804688 0.265625 4.820312 0 3.96875 -0.53125 C 3.125 -1.070312 2.457031 -1.882812 1.96875 -2.96875 C 1.488281 -4.0625 1.25 -5.40625 1.25 -7 C 1.25 -8.59375 1.5 -9.929688 2 -11.015625 C 2.5 -12.109375 3.1875 -12.921875 4.0625 -13.453125 C 4.9375 -13.992188 5.945312 -14.265625 7.09375 -14.265625 C 7.96875 -14.265625 8.722656 -14.113281 9.359375 -13.8125 C 10.003906 -13.519531 10.546875 -13.054688 10.984375 -12.421875 L 11.25 -12.484375 L 11.25 -19.625 L 14.765625 -19.625 L 14.765625 0 L 11.25 0 L 11.25 -1.8125 L 10.984375 -1.859375 C 10.585938 -1.203125 10.050781 -0.679688 9.375 -0.296875 C 8.695312 0.078125 7.878906 0.265625 6.921875 0.265625 Z M 8.0625 -2.71875 C 9.050781 -2.71875 9.832031 -3.070312 10.40625 -3.78125 C 10.988281 -4.488281 11.28125 -5.5625 11.28125 -7 C 11.28125 -8.4375 10.988281 -9.507812 10.40625 -10.21875 C 9.832031 -10.925781 9.050781 -11.28125 8.0625 -11.28125 C 7.03125 -11.28125 6.238281 -10.9375 5.6875 -10.25 C 5.144531 -9.5625 4.875 -8.476562 4.875 -7 C 4.875 -5.519531 5.144531 -4.4375 5.6875 -3.75 C 6.238281 -3.0625 7.03125 -2.71875 8.0625 -2.71875 Z M 8.0625 -2.71875 "/></g></g></g><g fill="#d9d9d9" fill-opacity="1"><g transform="translate(399.053172, 722.600024)"><g><path d="M 13.84375 -6.203125 L 4.84375 -6.203125 C 4.9375 -4.984375 5.28125 -4.097656 5.875 -3.546875 C 6.46875 -2.992188 7.273438 -2.71875 8.296875 -2.71875 C 9.109375 -2.71875 9.757812 -2.867188 10.25 -3.171875 C 10.75 -3.472656 11.15625 -3.925781 11.46875 -4.53125 L 11.734375 -4.53125 L 14.0625 -3.03125 C 13.601562 -2.050781 12.910156 -1.253906 11.984375 -0.640625 C 11.066406 -0.0351562 9.835938 0.265625 8.296875 0.265625 C 6.847656 0.265625 5.597656 -0.0078125 4.546875 -0.5625 C 3.492188 -1.113281 2.679688 -1.929688 2.109375 -3.015625 C 1.535156 -4.097656 1.25 -5.425781 1.25 -7 C 1.25 -8.582031 1.550781 -9.921875 2.15625 -11.015625 C 2.757812 -12.109375 3.570312 -12.921875 4.59375 -13.453125 C 5.613281 -13.992188 6.765625 -14.265625 8.046875 -14.265625 C 10.023438 -14.265625 11.539062 -13.738281 12.59375 -12.6875 C 13.65625 -11.644531 14.1875 -10.109375 14.1875 -8.078125 C 14.1875 -7.335938 14.160156 -6.765625 14.109375 -6.359375 Z M 10.8125 -8.484375 C 10.78125 -9.546875 10.53125 -10.320312 10.0625 -10.8125 C 9.601562 -11.300781 8.929688 -11.546875 8.046875 -11.546875 C 6.273438 -11.546875 5.226562 -10.523438 4.90625 -8.484375 Z M 10.8125 -8.484375 "/></g></g></g><g fill="#d9d9d9" fill-opacity="1"><g transform="translate(414.270277, 722.600024)"><g/></g></g><g fill="#d9d9d9" fill-opacity="1"><g transform="translate(420.40027, 722.600024)"><g><path d="M 6.5 0.265625 C 4.925781 0.265625 3.617188 -0.03125 2.578125 -0.625 C 1.535156 -1.226562 0.78125 -2.03125 0.3125 -3.03125 L 2.375 -5.546875 L 2.6875 -5.546875 C 3.03125 -4.734375 3.507812 -4.09375 4.125 -3.625 C 4.75 -3.15625 5.472656 -2.921875 6.296875 -2.921875 C 7.222656 -2.921875 7.910156 -3.1875 8.359375 -3.71875 C 8.804688 -4.257812 9.03125 -5.132812 9.03125 -6.34375 L 9.03125 -18.5625 L 12.6875 -18.5625 L 12.6875 -6.28125 C 12.6875 -4.039062 12.175781 -2.390625 11.15625 -1.328125 C 10.132812 -0.265625 8.582031 0.265625 6.5 0.265625 Z M 6.5 0.265625 "/></g></g></g><g fill="#d9d9d9" fill-opacity="1"><g transform="translate(435.376237, 722.600024)"><g><path d="M 8.234375 0.265625 C 6.941406 0.265625 5.789062 0.109375 4.78125 -0.203125 C 3.78125 -0.523438 2.945312 -0.941406 2.28125 -1.453125 C 1.613281 -1.972656 1.101562 -2.539062 0.75 -3.15625 L 2.765625 -5.625 L 3.078125 -5.625 C 3.640625 -4.789062 4.347656 -4.128906 5.203125 -3.640625 C 6.066406 -3.148438 7.078125 -2.90625 8.234375 -2.90625 C 9.210938 -2.90625 9.953125 -3.113281 10.453125 -3.53125 C 10.953125 -3.945312 11.203125 -4.519531 11.203125 -5.25 C 11.203125 -5.6875 11.117188 -6.050781 10.953125 -6.34375 C 10.796875 -6.644531 10.53125 -6.898438 10.15625 -7.109375 C 9.78125 -7.316406 9.273438 -7.5 8.640625 -7.65625 L 6.265625 -8.203125 C 4.597656 -8.578125 3.351562 -9.207031 2.53125 -10.09375 C 1.71875 -10.976562 1.3125 -12.128906 1.3125 -13.546875 C 1.3125 -14.597656 1.570312 -15.519531 2.09375 -16.3125 C 2.613281 -17.101562 3.375 -17.71875 4.375 -18.15625 C 5.382812 -18.601562 6.585938 -18.828125 7.984375 -18.828125 C 9.410156 -18.828125 10.632812 -18.640625 11.65625 -18.265625 C 12.675781 -17.890625 13.539062 -17.3125 14.25 -16.53125 L 12.421875 -14.046875 L 12.109375 -14.046875 C 11.585938 -14.585938 10.988281 -14.992188 10.3125 -15.265625 C 9.632812 -15.546875 8.859375 -15.6875 7.984375 -15.6875 C 6.972656 -15.6875 6.207031 -15.507812 5.6875 -15.15625 C 5.164062 -14.800781 4.90625 -14.3125 4.90625 -13.6875 C 4.90625 -13.101562 5.085938 -12.632812 5.453125 -12.28125 C 5.816406 -11.9375 6.453125 -11.671875 7.359375 -11.484375 L 9.796875 -10.96875 C 11.597656 -10.582031 12.90625 -9.9375 13.71875 -9.03125 C 14.53125 -8.125 14.9375 -6.9375 14.9375 -5.46875 C 14.9375 -4.3125 14.6875 -3.300781 14.1875 -2.4375 C 13.6875 -1.582031 12.929688 -0.914062 11.921875 -0.4375 C 10.921875 0.03125 9.691406 0.265625 8.234375 0.265625 Z M 8.234375 0.265625 "/></g></g></g></svg>